<mxfile host="Electron" modified="2025-06-05T11:57:10.603Z" agent="Mozilla/5.0 (Windows NT 10.0; Win64; x64) AppleWebKit/537.36 (KHTML, like Gecko) draw.io/21.6.8 Chrome/114.0.5735.289 Electron/25.5.0 Safari/537.36" etag="RuW3U0ohXTRptZyWMDYq" version="21.6.8" type="device">
  <diagram name="Page-1" id="QuzzKY_QfcnB-hhL4_Tb">
    <mxGraphModel dx="822" dy="573" grid="1" gridSize="10" guides="1" tooltips="1" connect="1" arrows="1" fold="1" page="1" pageScale="1" pageWidth="827" pageHeight="1169" math="0" shadow="0">
      <root>
        <mxCell id="0" />
        <mxCell id="1" parent="0" />
        <mxCell id="X61n1Rkwuy26WRs1GRfb-2" value="" style="shape=image;verticalLabelPosition=bottom;labelBackgroundColor=default;verticalAlign=top;aspect=fixed;imageAspect=0;image=data:image/png,iVBORw0KGgoAAAANSUhEUgAAAiMAAADFCAIAAAAJymVQAAAAAXNSR0IArs4c6QAAIABJREFUeAHsfQdYG0f6vhzHuOUSp/lSLn/nl2u5O18cx4l9cWI7xTWuuGDcAPeGCzbGDVNNM9X03nsV3VRTBYjeqySEupCQhApISNp/lnU2igCBEdhgVs8+MDs7MzvfO7Pz7vfNN7MoAPkhCCAIIAggCCAITCcCqOksHCkbQQBBAEEAQQBBAECYBukECAIIAggCCALTiwDCNNOLL1I6ggCCAIIAggDCNEgfQBBAEEAQQBCYXgQQpplefJHSEQQQBBAEEAQQpkH6AIIAggCCAILA9CKAMM304ouUjiCAIIAggCCAMA3SBxAEEAQQBBAEphcBhGmmF1+kdAQBBAEEAQQBhGmQPvAcCOjq6i5duvQ5MryopCgU6vLly1N4N11d3RUrVkxhgZMuytTUFIX6/TldsWKFrq7upEtTJ+PFixc3b96sTgmzOu+vrWBqajquCJmZmUuXLmUymeOmnFMJfu/Bc0rsV0xYlMrf06dPp0remcA0paWlpqamHA5HUSh1mIZCoZiamtbW1ioW+FKYRigUmpqaKrXXDGEaPB6/YMGC/Px8CCUCgYBCoezt7aHTp0+fwn1QQ0Nj+fLlmzZtsrKymqUDbnp6+khSmSDTAACwatUqAwMDxe6EhBGmeRX6QJjCb8uWLSgUSiEijE6nT5WQM4Fp7O3tUSgUgUBQFEodpqmsrEShUEFBQYoFSiSSwcFBxZgXEO7t7R05nCkxzeDgoEQieQGVUbrFtWvX/vGPf8CRozLN1atXw8LCgoOD7e3tNTU1X3/99XfffTcvLw/ONVsCly9fVtQjoWoPDAwMDQ1NRARPT88lS5b09/dPJPEcSYMwzavW0KM+JFMl5NxhmqlC7LnKmQjTPFeBU5VYIpG89957xsbGcIGjMk1cXBycAACAurq65cuXL1u2jEqlKsbP/LCaDxGDwZg/f35AQMDMl/SF1RBhmhcG9Qu6kdJDIhAIbty48Ze//EVDQ+Mf//iHvb29XC6HqwKpAuHh4f/4xz8WLlz41VdfFRYWwldHBpSYpra29r333tu0aROfzx+ZmEaj6enpffzxxxoaGh988MGePXsgRURHR+fdd99VejHfsmUL/MoM1SopKek///mPhobGv//978zMTKh86AUfNtTAyo2KLFBGMpl88uTJ5cuXQwXCo4Ci2QcqFlJulKxnMpnMxcVl5cqVCxcufO+997Zt21ZZWTlSZCgmNjb2q6++WrRo0bvvvnvs2DEymQyn3DT8g08BAIBvBI3diqJBBhwlnUZxniYoKAiFQpWUlBgYGLz33ntLlizZt2+fksEqIyPj+++/X7JkyRtvvPHLL780NTXBdx+rgeAEcCA/Px+FQhUUFMAxE2EaAAAiIyNRKNS9e/fgjEqB+vp6XV3d//u//1u4cOGf//znkydPslgsxTRPnz5ds2bNwoULP/vsM29vbyU0xm33mpqa7du3/+lPf1q6dOlPP/1UVlYGFy6RSMzMzP72t78tXLjwnXfe+e6777Kzs6EWUWwFWLlRUjfJZPKpU6c+/PBDDQ2NTz/99MKFC2KxGC589erVe/bsgU+RAMI0r1ofUGQauVz+008/zZs378yZM+7u7rt370ahUNevX4dlRqFQK1eufO+99ywsLOzs7FasWLF48eLGxkY4gVJAkWmwWOzbb7+9ZcsWkUiklAw6Xb9+/VtvvWVsbOzv729tbf3jjz9CNJaTk4NCoVJTU+FcNBpt/vz5FhYWUAwKhVq1atWHH35oaWnp4uLy2WefLVmyBBqA6uvrjxw5gkKhnJ2dIQuhQCAAAEBFFgAA6HT6X/7yl08++cTCwsLLy2vPnj1QCdAlCwsLFAp17tw5qEAcDqdIAFCV9PT0UCjUjh07XFxcHBwc9u7d6+bmBtdfMQCN/t98842zs/OdO3cWL1786aefwrNKKphGIBB4eXmhUChNTU2oJvX19b+WrDS2jmSa1atX//TTT25ubjdv3pw/f76WlhZcn9DQ0Hnz5m3fvt3Nzc3Ozu7TTz9dtmwZbHgcq4Hg7HDg4cOH8+bN4/F4cMwEmUYikSxevPjrr7+GMyoFHBwcNmzYYGFh4evre+3atcWLF69duxZ+GaqpqVm4cOGnn35qa2trZWX10UcfrVq1Ch76x233pqampUuXQh3J1tYW4rPy8nKoDvfu3Zs3b97Zs2f9/PwcHR2PHDlia2sLAAAGg1EyQUPpFZmGQqF89NFHS5YsuX79ure394MHD/71r3/BrQwAwK9P3Hvvvack7Fw+RZjmVWt9RaZBo9EoFOrhw4ewkAcPHpw3b15XVxcUA727VVVVQadEInHRokWamppweqUAzDQlJSVvvvnmzp07x5rM4HA4ijPGiuXIZLK//OUvhw8fhiOdnJzmzZuHx+OhGBQKpaGhAVeyvr4ehULBI/tY8zQqspw+ffrDDz9UfFnW1tZ+6623II4cdZ4GVjUAAIDe6K9evQpXGAAAeDRUjJRIJMuXL1+5cuXAwAAUn5aWhkKhTExMoFMVTAMAwESsZyOZZvPmzXBlDAwM5s+fz+VyAQDg8/nLli07e/YsXEM6nf7WW29BMSoaCE4PB44fP/7uu+/Cp78y8QSZBpoef/vttxXzKoaVXlOioqJQKFRRURGUZvfu3UuWLPnVZQM67ezsfP3115WYRkW779u3T0NDA3p1AACASqX+6U9/2rhxI1TaqlWrdu7cqVgZOKz4EMGRikyjo6Pz2muvKem1cCsAAGBtbY1CoRgMBpx9jgcQpnnVOoDiQ3Lu3Ln58+crzkyWlZUpjtooFOrbb79VhODw4cNLliyRSqWKkXAYYpr8/PylS5dqamoqmgvgNFBgcHBQQ0Nj586dfX19SpcAALh9+/bixYvhiq1Zs+a7776Dk6FQqF9++QU+BQDgzTffhJ15xmKasbLI5fJfpwrOnTvXq/CD7U4AAIzLNJcvX543bx6bzVas0qhhDAaDQqE8PT0Vr37++edr1qyBYqaDaWJjY+HbJSYm/qoVQcoQFM7Pz1eQu3fr1q1/+9vfAABQ3UBwgVBgx44dUC44fuJM8913373++utwxrECAwMDvb29ULEuLi4AAEil0sWLFx89elQxC6SXwzEquopUKl2yZImihgcAwPnz51977TVIOdu0adOnn37a0dEBlwYHFB8iOBJmGplM9uabb+7duxe+NDIAqafNzc0jL83NGIRpXrV2V3xItm3b9sknnyhKyOVyUSiUoaEhFIlCoXR0dBQTPHjwAIVC0Wg0sVhMU/hB3KOrqzt//vzFixd///334/rhODs7v/baawsWLNiwYYOdnR2NRoNv1NzcjEKhQkJCAABoa2tDoVC/muDhqygU6sKFC/ApAAArVqzQ09ODYsZimrGyMBgMJbM7fJqYmDgRptm+ffvHH3+sWJ+xwtAruZK31b59+2BDynQwDWwOAgAAmnaCJlTs7OxgSRUDb775JlR/FQ2kJOCOHTv++te/KkZOnGlWrVoF6TSj9ig2m3316tXly5cr1tDc3BxSQRTVQejuBgYGSjrNWO1Oo9FQKNSDBw8Uq+3i4oJCoaDJqsLCwmXLlkEGZENDQ4ieocSKDxGcHWYaOp2OQqHu378PXxoZ8PT0RKFQLS0tIy/NzRiEaV61dld8SNRhGqWpcsi4r6uru2TJkoMHDy5YsEBxomUsELu6uhwcHLZs2aKhobFs2bKamho45Zo1a7Zs2fLrq6uxsbGGhoai6gNN88IpIaaBlyuOxTRKKzdhKxM04hw/fjxnxA8yboyr00wh0/zwww+bNm1SFO348ePwEtHJWc8UbThQq0ErcmxsbCB/dyW5FdfrqGggpUq+8847ijETZBponuabb76BWRBmFKhH/fzzz4sXLzYxMUlMTMzOzn7y5Ak8oFOp1Ikwjep2V8E0AACw2ezAwEBtbe1ly5bNnz/fz88PklHxIYKlhis2EaaxsrJCoVBK3hlwUXMwgDDNq9boig/JSOtZeXn5BK1nfX19iiMUNPEAWc/EYvH27dsXLVqkOGapxrGjo2PJkiXHjh2Dkz1+/Hj+/PlUKvWzzz5TmhlSzTQODg6wyxlcmoosUqn0T3/605EjR+DESoGqqqqR62kU52nUtJ7961//gq1nmpqaq1atUqzAhg0bYKZhsVjwcAanGdcjYCymiY2N/dU6mpWVBRelIjCygRQTQx4B0PQPFD9BpoF8zyD36JE9qq+vD4VCQRoMVGxHRweMgFQqXbRo0bjWs7GYZlTr2YULF2DrmaKAfD5/9erVsOaqr6//azUUE0DeB6bDewRMxHqGeAQoo6d0jpzOdgQUmQbyCLC2toaFOnz48EiPgOrqaihBT0/PokWL9u3bB6dXCsAeASKRaMOGDW+88UZFRYVSGuhUKBTCs+IAAMhksj//+c8HDx6EEzOZzNdff/3QoUMoFCohIQGOhx7psYYPAAAgC7jSkn4VTAMAgJ6enoaGhpJPHfy+2draCruiwdVQZJrn9Qj44osvYEeJjIwMxRdzQ0PDhQsXwreuq6t77bXXYKYRiUQoFOratWtwNX4NTJppeDzem2++uWnTJiWHcuju4zaQYh3y8vJQKJSiVXAiTAOtp3n77bcVDaeKxfJ4vF9VHDMzMzjy0qVLMNMAALBr165xPQJUdJV9+/YtXLgQ9rWj0+lvvvkm7BGg6CECAMChQ4dgI+ft27d/bQhFXzJFpgEAYFyPgNWrV+/evRuWCwko8zaCyGxHQJFpZDLZjz/+OG/evHPnznl4eOzdu3dcL+dffc8UDdZKaMBMAwAAj8dbs2bNO++8ozSCQ1lqa2vfeeedCxcuuLq6enp6Qm6j8fHxigXu2rULhUItW7YMHpehq6ppA4vFQvPAoaGhUVFRsJezihGHTqevWLFiyZIl165d8/HxsbGxOXToEOwQJZFIli1b9s9//tPf3z8qKgpygVNkGgAATpw4AXk5P3782NnZef/+/bAvnKJEvxr6IF+DdevWubi43L17d8mSJYpezi0tLa+99trq1avd3d1NTEyWL1/+3//+F2YaAAD+/e9/f/DBBx4eHlFRURCwk2YaAAAiIiJee+21lStXPnz40MfH5/79+19++SUE1EQaCBZNLBa/++67d+/ehWNGZRp4jwBHR8f9+/dDewQorsKBs8OBjRs3Llmy5P79+56envv27YOcmCHV4Vemqaqqglar2NnZWVtbf/TRR19++aWitqG6q0Bezh9//LGVlZWdnd1nn322cOFCeFpr+fLlWlpadnZ2fn5+58+f/9Xp48qVK1DFIHXwxIkT4eHhUVFRUKQiBZLJ5A8++ADycvbx8TEzM/vPf/4DMxO0ctPf3x8WEwkgTPOq9QFFpoFcXQ0MDD766KMFCxb8/e9/H2vl5t///veFCxeuXr1atUFMkWkAAGCxWNDI2NnZqYQji8W6fPny559/vnTp0rfeemvdunWKLlJQYuh5PnfunFJe1cMHAACWlpYff/zxa6+9BpvRxs3CYDAuX778ySefLFiw4IMPPvj55599fX3h+yYnJ//73/+GPGhHXbkplUrt7e0///xzDQ2N999/f8eOHbAiCBcCB2JiYlavXg2tB1RauQkAQHh4+GeffaahofHll19mZWUpURoGg1mzZo2GhgY8rqnDNNDsyLZt2956661Fixb99a9/1dPTg5zaJ9JAsEQAAFy9elXR/WxUpoHmYBYsWPD+++9v3LhxIvuekclkTU3NZcuWvfXWW4cOHYLmZmCmAQAgLy9v9erVGhoaf/3rX/39/W/evLlo0SK4YuO2e01NzbZt2954440lS5b8+OOPGAwGzvvw4cO1a9cuW7Zs8eLFn3/+uZWVFaz8SaXSK1euvP/++/PmzYOJDW4RqAQikaijo/P+++9Dq0ovX74Mu2J6eXkhu9HAOEMBhGmUAJlbpyMf1BcpP2TcgxdPvMhbI/d6XgRwONyCBQtyc3OfN+PUpt+7d68i4U1t4VNV2pdffqm4Pnqqip3V5SBMM6ubT93Kv1ym2blz52effaa43k1deZD804nAhQsXXvxXAxSXdnZ0dCxYsODMmTPTKaW6ZUNfDUDWbCrhiDCNEiBz6/RlMU1UVNTdu3dRKNTjx4/nFuKItM+JwAcffHDnzh1fX9/79++/8847S5cuHXWt5XOWiiR/0QggTPOiEZ9R93tZTINCod54443Tp0+Pu/xzRsGFVObFI6Cnp7dixYqFCxe++eab27ZtUzE99uLrhtxx4gggTDNxrJCUCAIIAggCCAKTQQBhmsmghuRBEEAQQBBAEJg4AgjTTBwrJCWCAIIAggCCwGQQeGWZRiaTkUgkLpfLQ34IAggCCAIIAtOMAJfLJZFIMplsVCJ6ZZmGRCLBe/khAQQBBAEEAQSBF4AAiUSaW0wDbY9PIpEmR+QsFisyMpLFYk0u+6zONZdl5/F4iPhIz5/Vz++kK69mz4de7hW3YVWknFdWp4E271P8Hq2i2OOGJRIJGo2Gd6cYN/2rlGAuyw4AACI+0vNfpcd54rKo2fNVD7kI04zeEGqCPnqhsyR2LsuOMM1cbv25LLv6PR9hmskM8HO5z02H7DKZvH9AQucN4Jj8RjK3HMfKb2Wk1lNisD2BJXj3/E7X3I7HuR0uOc8O55x255x2p2zwcMnpcM/v9Cns8i/Gh2AIEeXEGGxPfBUJXUtOb6BmNdHyWxlFHcwyHKuqm13Xw2mm8Dro/YReAYUj6uUPckWSAYlUJpNPsB9Mh/gTvPVMSDaXxZ/LsiNMM8mnTzXBjlvoXO5zzyu7eEhG4w40krn5bYz4KlJgCd4tr8M6o+V+UsO1qJrTwVgtb8wu1+KXfuxxLznkhTnmV64bWHE2pPJSRPX16NpbcXX3EhtMk5us01sePWl1z+8MLcWbBSQXtdFbqDwqVyQSS8ftLa9SgudtfUT2VwYBNZte9ZCLWM9G7ydqgj56obMkdlTZpTI5s3+wmcIraGfGVZG8CrosU5uvR9ce9y8fi0K0vDGng7FXo2ruJTZYp7e45nYEFOOjscSUOkpeKx3TxaoncToZfCpXxBVK+IND/MEhweCQUAweIrEUPgSDQ1yRhMUfZPAGyBwRkSXEMfnt9P4mCreexKnqZpfhWMUdvfmtjKwmWnoDFV1LjqsiRVYQg0sJfkU49/xOp+x2u8xWi9TmB+jG2/H1BjG1+pE150OrTgVhj/uXH/bB7Pcs3e32jAt3Pi763iJ15+MiWK6DXqWngysNY+usM1q8C7piK3tyW+g1xL5uloA3IHnFdggdtfVnSc9Vt5pzWXZEp5lk71FNsOMWOpf7HIcvco9Ap9aSQjAEh6w2o7j6k0HYPb8NxPD4u8et+GQQ1jC2zjaz1b8Yj64ll3b2ttJ4FI6INyCZuLVq3LZ4MQnkcrlEKuMIxZ007uMwdHYTJbEG1M8cs9oeoBv1I2uO+5fDbASDsMu1WNOj5HQwiAPMQ3mt9NoeDpEl5A8OzToemss9fy7LjjDNJMcZhGkmCJxUJu9hCwvbmaEYgkVq86kgrNJL/VG/smtRNQ/Tmn0KuxJrSMUdIJ2w+IOzjksmCIiK4WZIKuvlD3bQ+8twrIwGalhZt2tuh2ly09WoMXlovyeoDxnF1dtktPoW4uKqSPmtDIiHhOKhCVbpRSZTIf6LrMZLuddclh1hmkl2OYRpxgJONkwtOc10j6ed16NrNT1K4Df0ve4l+pE1jzJb7vkll3cxSX3CAcncmqVQ53lT5KH0BmpoWbdLDshDV4b1IRhkxYC2T9nVqBrr9Ba/IlxKHaUCz+5mCV7uzNBcHm3nsuzq9HxoqFE95CLzNKMPyK9Yn+sTiMtwrFAM4X5SwyGF+fnj/uWmyU2BJfj8NgahVyCRgjtJvGKyj97AY8dOk/gSqYzZP9hO78d0sdLqqaEYglN2+52E0S2Tx/3L7yTUu+d3omvJVd1sGnfghWmQ0yT+2HjPoCtzWXb1H3yEaSbTlWd7n5PJ5DgmP7We8uhJ66kgLPwevd+z1Ciu3r8YX9TBZPAGRp1FmO2yT6a9FfK8ePGHpDI6b6CexMlupoeVdTtmtd2MrTvs8weHPU2PkssR1TYZrWFl3QXtTByTPzg0LermixdfAfuXHJzLsiNMM8nOp5pgxy10NvY5kVha28OJrCAaJzUe8vp9nLoYXuWS05HZSMUx+dIJLCuZjbKP26ATTzBDxJfL5RyhuJHMzWyk+hXhTJObTgdjFV0SdrsVnw7GmiY3+Rfjs5poLVRe/4Bk4mKOlXKGiD9W9aY1fi7LjjDNJLvW3GEaOm8goZp0M7YOdg/T9Ci5HV8fXEqowLN5zz/6IM/bjN2OZXBIimPyC9uZ4eXdNhmtlyKq9ylMs+1yLf6j2a2PwXtus9tcbv25LDvCNAjTjI4AjTsQX0UyiK6FLGOHvDAP05oTa0itNB403TJ6tgnEIs/bjGWaka0nlcnJHFE5jhVXRXLOab8RU6c4D7fLtfiAZ+nVqBr7J20x2B5MF4vMEame8pnLrT+XZUeYZuTDNaGYV1WnIXNEMZU9V6NqnhGMN8Yxq60cxxIPjf5ZiAmB9cdEyPM2i5jmj00Hnsnl8j6BuJ7ESW+g+hR2PUA36gVWwBN10AKgK5E1j560QtxD+SP3zOXWn8uyI0wz8lGaUMwrxjQgwWB7rkQ+I5jDPhin7HYsgT2FBAPDijxvs5pp4HZUDIjE0nZ6f3Yz3b8Yb5rcdFLBSWSXa/FBr9KbsXXu+Z1p9dR6IjsmAdnFXBG8uRJW88FXPeTOCC9nd3f3FStWLFy4cO3atRUVFSMbtqmpaf/+/StWrEChUM7OziMTjIxRLfbI9EoxaoKuVNqkTynDGgxMMNo+ZS45HVXdbDXtY6rrM0NkV13J6bs6R8SHucevCHc/qeGoXxmk90Drdk8GVlimNkeUEyvwbLZAPH1oz6iS50jTj4W5muKrHnJfPtNER0draGgEBgY2NzefPXt22bJlDAZDCQssFmtoaBgVFfXBBx/MBaahcQcUTWSHfTAvgGBgzNXscHA5szQwN8WXy+Vsgbiqmx1dQTjrmnIhtBJ2MNnlWnwioMI85dUnnrnZ9PBzqqb4M51p1q5de/nyZUhamUz20Ucf2djYwMIrBVasWPEKM41MJq/As03QjdDb5WEfjHNO+3RrMEoIq2+uHVng7IpR83mbXcKOrC0svnhI1kHvz2iguuZ2XI2q2eP++14SJwIqLH7TePpeIY0Hln0kLHMhRk3xZzTTiMXi+fPnJyUlwQ2po6OzZ88e+FQpoJppBgcH4S+bQp8aZbFYkkn9hEIhGo0WCoWTyv3cmdj9olhs98nAip2Pi3a7FlmmNmE6GcKBwecuaCoyvGDZp6LKU1kGIv6oPV8gGmwm96XWkpyz2/Qjqna7Fe18/Ow44V9mltwYhsFjOhkMrmAqG+PFloU0/ahNP8FGYLFYKBRqrM8cv2TrGYVCQaFQGAwGZpRbt26tXbsWPlUKqGYaU1NT1B9/kZGR6Jn9841CX3RP3mSZ+r1F6hbrlJveyaGxM7vGSO0QBNDo+ES0dyTaLCD5onuy5qOUjcMd+HsLsBtvt0nRc0m545vsEoaOjkfAmisIREZGzhWmmUU6jVgsLutkGMbWQi+G16NrspsoAtHLUWKU3lmQNzt13uyUwJx1p5NrfUjjSa7pccxqvRRetdv1d43ndFCFTXpzHLa7tpvFEwzMZEAmJ/tMlui56qam+DNap5la65miAqTaaKiYctSwmibLUcuEIxvJ3Ftxdbtci/d5lDhlt3fQ++FLkw7IpLIBgYTLFDGJ/aS2PlwNs6WU2lhIbioiN5dQmksoLaXU1jJqWxm1rZzWXkFrx9I6sPSOymdHZxWjs4rRVc3oqmF01dJjAlOpuD4OXSjgDIpFQ/IJ7GEz6ZrPtIzT2vQzTdiR9ZkS8Qck0hYqD11LdsxqOx9aBa/m2eNWrB9Z45bXkd1MJ7KEqteQjqzbdMdMiezTXcnpK19N8VUPuS/ZegYAwNq1a/X19SH4ZDLZxx9//Ap7BHTQ+42TwAn/Pe4l7vmdvfzB5+o3UqmM3zdIJ/DwdczGQnJ5Ci4/rDXNoz7RoTrGCjtVR/TDCp9b2dEPKxQLTLCvSnGtfeLbmB/aUhzXUZGKr80hNpdQOqsYxGYWDcdlUfj97IHB2U9Laj5vz9WgMzDxdIgvGByqJ3HiqkhW6S06Ab8vIz3khbmX2BCCIZTjWFzhFGzapiae0yG7mlV6kdnVFH+mM010dPTChQuDg4NbWlrOnTu3bNkyOp0OAMCJEyfu3LkDAS0Wi2uHfx9++KGhoWFtbW1nZ6fqNlAttuq80+F/1c0SPExr3uVavNut2DGrjcoVjV8HsbSXxO+qZlRlEvJDW1Jc62Ktlekkyak6y6+xIKINk9hVlUloLCS3Y2ndjSxqF5dNEXCZIi5TyKGDRx9NwKYIWBQ+i8zvJfUze/qZxGcHo5vH6ObR8eBBw3EJjcwon9QWDKgP1eYQK9PxmMTOwsi23KDmDK8GtHPNyGooclKMFTbRoTrNoz47oAmqWPWT7qYicmcVo6eVzST283pFg0LJjNWT1Hzexm3WGZ7gBYjfyx8s7ewNLMHfjq8/4FkKazznQiudstszG6ndLMFLUXdegOwzufXVFF/1kPvydRoAANzc3P7f//t/Ghoaa9euLS8vhxpj06ZNurq6UJhAIPxxph+1adMm1W2mWmzVeaeWaZj9gw5ZbdAuvFbpLd0swVh3F/LEpFZ2YyG5JK4jzaNecfhOcqzOCWwuje+sy+3pqKRTOjgchlAy+HL2jQc/hDwoFXAH+2gCOp7X08ruqmG0Yqj1+T2V6YTShM6CiLbsgCbVylasNTbJqSbDqyEnqLkwqr0sqav6SXdjAamtnEao76V2cftoAiFPLBv+ZM5YiE1HvJrP23RU6UWW+YLFlw5/3iK9geqY1XYmpBJdNb6QAAAgAElEQVRmHS1vjAm6MbKCWNvDeWGf43vBsr/IZp3IvdQUX/WQOyOYZiIoPG8a1WKPW5qaoEPly2Ty9AYqtIG/Cbpx1PkYcJcqmqCpiJzl3wRTS6w1NtOnsSypq6WUSu3iCnniUT8kM64Uk0swJbLDt5ZJZSK+mEMX0vE8YhOrA0tvLCBVZhBK4jvzw1qz/BpTXOsSHlXBso8MJDlVZ3o35Ie1YhK7qrN+V48Y3TwuUzQgkEzt++/Uig/jMFsCL1d8jhD8ZF9gCd4orh7+Guwe95KbsXWBJfhKAlswOI2fxH65sr/0HqKm+KqHXIRpRm9fNUEHAIDMEd2Or9/lWvzr/oZV3Wyl20ilMhqOW/2kO9WtDhpbk5yqy1NwhPpeDl0onbrtMpXuO5FT9WWfyF2U0kiHZAN8Ca9X1Evqp3SAHg3NJZTqrG5MYld+WGumd0OSk6q5qGdsFN5altRVm0NsLaMSGnppeC6XKXxeS91LEV8JjZd4OnPEl0hlbbT+hGqSRWoz/F24PW7FV6NqfAtxpV29k/gihmpgZ47squs5TVfVFB9hmsm0izqgS2XyuCoS9EbmVdCl+Fl4uVzO6OZhkrrgOfx0z/raHCKT2D+1L+aTkfm3POrI/lsZ0/JfKpUJeb+pR82sjkp6YyG5KpOASezMD2/N9BmTjWKtsWjnmkyfxvyw1tKETmhCq6OSTmxmMbp5vF6ReGAI1hpnrPjTgumIQmem+NA3ZFPqKNYZLcf8ymEj25XIGr8iXAWeLRRPga4zM2Uf0UTTFaGm+AjTTKZhJg06jsm/Nryl/7nQykYyF763dEiGr2Nm+TVCGkxuUHNLKYXLFMEDHJzypQcmLftLrzkAANIhmYA7yCLzyW19XdWMxkJyZTqhJK4jL6QlQ6ViFG9XmeZelxvUXBjdFuqYUf+UiKtl0nBcLvMPPDQTZJzWOsz81pfL5T1sYWYj1S6z9bj/M9bZ41Z8I6YuBENQZ15n5ss+k5seYZrJtM4k+pxMJg8r697jXrLHrTgEQ4D38xf1ixuektDONTFW2AT7quqs7n72wGTq9KLyTEL2F1W1KbiPTCYfXngkZHTziM3gvFHDUxI2DV8U3Z4d0JTiWhtjjR3VyTvDu6Egoq0iBddYQMLVMul4Xj974OXaOacAjhFFzK7Wl8vlRJYwpY7yMO13C9u+4W/OhmIINcQ+RYvCCFmVI2aX7Mq1V/tcTfERpplMCzwv6AMSqUUq6MR8JbKmi8mHbsmmCMrQXbE2lTFW2DSP+vYKmnhgCnT8ycjzPHmeV/bnKXsWpBUPihPj0Ewyl9rJ6aoBtSJsGr4wsi3TpxG2ecJuC7HW2BTX2tyQljJ0V8NTUmcVA3QLpAvB5a5y+SyQdkQVZ2/ry2TyTgY/oZpkmtwEueFAC9duxIDeBFgCmz+eN8HslX1EM04mQk3xEaaZdtDZAjFkMXPMaoNUmUHRUHkKDhqPnoa3ktv7ZuzykZHoqNnhRhY4E2PkckAqASQiYLAfEPUBAhbAZwA8KsAlS3px2TG+Enob0NsBMFrBg9kGMNvB095OCaWd295KqWrqeNpQl1KLiajK8a5A22NiLEoUjtIYS0yCbXmGR3VBWCM2uaMRtMUxaDgur1c0JJ4W3/SpAvnVaH0pyDr9STVky9RmbZ9nn97Z7Qa+CPoV4cpwrP6BURaKvhqyT7onqCk+wjSTQX7ioBN6BdDXcyPKifLhX3cTC7KVFUa3c+jCydz+peaZuOzTWE25HJAMAEI20E8D+gjgQE+tB0iVAKEE6MwFWtOBpkSgLhqoDgEqfAGMO1DkCDy1AXLMgCf3gPRbQMo1IOkSkHAWiNUFoo4CEVpA6D4gaCcQsB3w2wz4/AB4bxzrkHlt4Nh+IfPaMFaCUeOHPH/iPd5DczyCsz3b9PA61tS44L5t5m3XhBuBMdfDnh0GYTEG4TEGEUm3grLuexabO1bbWrc6mxA97/QG3hBGXZOhrwDphqAIOWagOEUOQKkbKGB1CFAfC7SkAB05AKEYIFUBtEaA1QVwySBEYiEgQ77tPWZnlMnkhF5Baj3FJuP3eZ3dwz5sfkW4chwL1nVmRM8fU45pv6Cm+AjTTKaFJgh6DbHvkDdmr3tJbgu4r4GAO1gY3R5jBXo6dTexEPsJCL1UAo6GnB5QOSBVAbgCoC0DaIgDqoKBMk+g0B4cVTNuA8lXgPgzICuE7Qf5wGfTqAP6+JE+PwD+W0FSCd0HEkzUUZBsEs6CxJNyFUi7AWQYgUN59gMg1xzItwIK7MABvdgZHNMxHkCZlxTjXed/dajCH6gOBWrCh48woCYMPAWPELDmVUFAZeDwEQBg/UAygI5yb6DMCyyn1BUss9Benm8rfmLNSbKjRDp0BTg3uLuXO3jnPwxIexAeZxQbcysuxjA2xjAm5mZ0zM2o2BsRqUa+efccy0zM6i0Nu2zP0x21BW6/yLwmgIb/FiB4NxBxGIjRARLPA6kGQJYx8NQWlKsyAKiPAVpSga58oKcCZCk2HtThBvkjKWqCPX8yD9UMyAN5E6TVU20yWmEftt1uxdeihnWdTkbsXP2ytfrL1RGmmUwHn8jzltVE2+NectgHU0/iyGXyDiw9wR5cgViejBucAZs4TUbs4Tzjyy6Xg4MUjwKSR08F+KLdGA8OuyUuQJ4lSBvoS+B4F7YfHPTH1h5+v+S3+dkoGasHUkLaDXCUzLcCNRWMB4D1Bwf6+ligORlozwK5ilgGkKsBehPQ2wlwiEA//bdX+ykwTI0v/qSR/WNGuUwu4otZFH5PK7utnFaTTSyJ78wObBpWiCtiHpbHWJbFWJbGWJTEWhanOxcX+hVVR+a3o7Mp2ancwtih8mCg3Bvks6c2QLYJqMklXwE5NfoYEHYACNwxUbYO2AaEaoK5Es8D6bek2eZNPmeHyv3ANu3IBojlAKMFbGuxEJidM09/RP33M8ibILUe9JyGPm6983HRRsvUW7G1kRXEZgpv6IXvT/F75V5GSM2ejzDNZBptXNDDy7t3uRafDsb2sIW8XlFuUDM07U/D/e7ZPJkbz4A8kgFBZlywhFwPmqpaUsFRvtQNyLUAX5PjToK6gu+Pv5PEH4lE7r1hyO9nUcgebpR2b8Jpaoo+8cmtrtwHLYUP60vsq8tdsJVepTV+RfUh+U0ROS2xme2JqZ3J6E50YkdiQkdCbHtsTFtMVGtUREtEeEt4SFNIcFMwfAQ1BgU2BgY2BgY0BgQ0BgQ2BkKXQptDw1vCw1vCI1oiolqjYtpi4trjEjsSU7pS0nHpTwhPcrtz84n5haTCUkoploatYdTUM+ubWc1t7DYcB9fN6ybzyQwhgzPAEUgEwgFhUlKSRDKKHf+FNc6QRMpjiahd3I5Kem0OsTi2I9OnMd4OdC1RPNDONblBzZgk0BkBVwO6wwk4g7/PCMpkgFgA6i5sPKjHEMtBw2NzMmh1rAwA27TAbpiiDEF2B98MDgD+W1QZD/02A+GHQDJLvwW+B2A8gNpIUEMlloNTWXwmMCR+YRBN7Y3kctDCFl9J1HFOOeD57Ouih7ww5inN6FoykSWcpfaJ50Jp3EFPdWkI06jGZ/SrqkFPqaPsci02iK7lCMXktr4E+6pYa2xtDnGGT/b+LuqQGJz9ptaDQ099LGjwyXsIEkmMDhC0Exprhry+F3hvYHh/j/f5rslnfYXvt/kBm9LCdsRE7wuK1/JIOuKYcsI6Vdc0Xc8oXe9ahu75dB29tGPaqYe1UrVm65FySBt96Gj8gb2+m09HHtSP1DaMOG4crmcZdto+5LxryGWf4KvBgQaRATfj/YxSfO5ked/P93pQ7Gla7mFR7fGwwd26xd22w80O/9i+x8WB+tiZ4fKY4eLCcHJmODoxHBzojx7R7R7RbWzp1jZ0a2ualRXN8iF4mFvQzM2pZmYjD5q5+bPDwpJq8ZBgbtdq6lJj7FV6NyD3dniaYUycQVLE1dSIa6kR19IirqdFXE+PupGefCc5xzQJY5tQ/zgO5xtHi4jri0/kJidz09J4mU/6c3L4BQWC0lIhFiuqqxtobh7s6BATCBIKRcJgDFBJmWF+gz0N8p4qOa4AaE0D6aTMC8i3Bg2PCedAm6T/lrFeNYDAX0CLJfoyqJUWOYKabjMawBeCVMclg4rRDP5BT71oYLCZwosoJxrF1cPftNYLrHDL6yjt6p2SJaIzEwPVg964dUaYZlyIRkmgAvRyHGuPW/H50CqeUNxURIZmZRjdvFFKeblREhHQ1w3Ooremge+wBXbgq2jcSSB4l8R7Q6/3910+31X5fJvr+79Ev3Whfms9A9fbhf1gHLn5WvRW7cDvDsds0YrbrpWwUytxjxZ6v1bKoZH8cSLjxNmss/p5+oYFhsYlxpZllo+wjx5XP/as8/Rr8AtuCo5sjYxrj0vuSs7AZ+R05+QT84tIRRgKBlIsGpgNkGLRxenCcXEELqGH19PT30PhU2gCGl1AZwqZvaLeXlEvS8RiiVjsAXbfQF/fQB9ngMMd5HIGOOwBNkvE6hX10rkUKq2LQmgitVYSqgtwpU86cxPb0iJa4gKaQt0b/BzqXB/W2hvXPLxVff9K1a3zlddPYS8dx545jNXdjz2yG3twO3bvZuwvP1Ts2Fi+fcPTH77BbPuudNv6kq3fFm/9X+GWtQVbvsnf/HXez1/l/rz6uY78zWsKtnxTuGVt8dZvS7etx+zYUP7LJuyun6r2bKnZt71O85fGg3uatTRbtQ92HD2MO36McOJE9wkd8Dh+4vfj2HHCsWOEo8cI2kcIh7XxWlr4Q1r4g4fw+w/g9x/o3H+o6aBeldbl0iNGuccs0k44xen5hZ2KDD0VBR+RJ0MTdT0zTtjnHzXDaBvWaF1sOXgCt/8gVILiX5zm/pqffsZp7gcjDxwkHNYmHDvWrafXc+486dp1yp27VDMzup0d08mR5ebE9rDneNtyfS37fR8I/I1EflcGfE+LvQ8PefwiddsgH9Wrwn8rSEXJV0BDa5kXOGOHKwDozaBKJJsC46c6z9zIp14kllbg2d4FXedCn+3+uce95E5CQ1wVCd8reMUUnZHiPxeYCNM8F1zPEo8Feiej/4Bn6VG/sh4mvzi2I8YKm+XfJOA+32dmJlMhFXmGxKB3FqEEtIoUOwOZd4H407LgnZxhLin3/TbdFyQSF/+vzQK+MQhZfyr8e62IDVpRP2qBXLJDK3G3FlpTK+WgVqrWkbQjZ7POGuQb6Ebq2pXbedZ5hjWHJXYkZhIyi0hF1fTqNnZbT38PS8QSDYlk8inzd1IUTi6TSfl8CZ0xiMOLGhoFZeX9eXnc1LS+2Fh2SEivlzfD0Yn20Ipy/z7ZwKDnwsVuXT2C1mHFsXKc8MFDhGPHiCdPgkOn/hXyjZvg6GliSntoRX/0iOHsTH/sWnjtGsPPnx0a1hcdw4lP4Kak8DIyIFWAX1LCKS9lYkuolcWE6oKOmvymmpyqmnRMdUp+TXxmdTS6OjyqMiAI6+VZ4eJYamtZZHrv6e3rudfOZ53TydAZydYjY3QydC7lXrpVcMu01NQOa+de6x7cFBzfHp9JyCwhl9Qyars4XTQBjS/my+QyuUwmHxqSi8UykUgmEEj5fCmHM9TXJ6Yz+9pIRExnc0ZTeURNrkcF2rY0+kFhlHFh1P2CqPtPo+7mR9/NQ5vlZNtklTimV7uiWz1iu71CqZ4+RVev0lxcGI5O9EePQMXL3Jxq/IB86xZJ/wrxzFnCsWP4A6NQ1AjY9+P37SUc2k88rkU6eZhy7jDt4iGG/n7m1T2sa1v7rm3gGqztN1onNP7fgMW3Ytv1Q07fy9w3yUP3g6a8HFPQNAeREKMVnISbOuc6xc6mFB7rqYeSUbmi1HqKWUrT/t++dKAbWPE4t6O08xVRdFSLr4TVyFOEaUZiMn7MqKAz+geO+5drepTUtDIzfRpirLBl6K4hyQt8EZNJQScuiFSKHIBUA3n4oX6fDR0+64t9/xfnt9bN/2vTgK/1Q749GrYepJPon7Rit2rF79RK2quVfODUk5MGTw3MMeYu1S7BTcFJnUlPe55CIxdDyBBKnhmjR5V9fMjGTvGMPKjUwc5OYU0Nv7iEl5nJiY9nBwcz3d3ptnbgQGZgQDx3DhzFht/TVf8laB8hnjxF0tcnG96iGj+gW1sznJx7vbxZQUF90THc5GReVha/qAi0DjU0gKahnp4hJlPK58vF4++KPeXiKwIjk8v4Yj5DyCBwCc2s5kpaZSGpMJOQmdiRGN4S7lPv41TlZFlmebfo7tW8q6ezTh9JOzKSiuAY7VTt01mnDZ4amJSaPMI+8qrzCm8JT+5KzifmV9Iq29htVD61X9wPvxNIh2Tg9E8nB57+eeLbGG/3h420ox9W+Btn5YY0Y9PwLaVUUiubyxQpbYUgl8tlAwNSDkdCpYIvBE1NwspKflExLyuLi0b3RUWzAoOYHh4MBweahSXlzl3StevEs8MUpdi4mpr4vbvxu3fgd27B7/gRv3UDfvP/8Ju/Ie5YQ967inZ4NVPnK/a5rzlXvwEJyWzDoOv+oahL8jwr0CLXmg76MXJ6pnZmaIJNLx6SVRP7/IpwF8KefU50j3vJ3cSGhGrSrJ7RmaD4iv1ZMYwwjSIaEw2PBF0oHroUUb3LtfjJ0+5Eh+pYa2xbOW161WexAHTuas8CPWiz7gMxJwZ9f8T5fFfo+7+oYR3lTuA3eqHfakV8DzJK3LZh7WT/qcyTtwpv2VbY+jX4JXYkFpIKm1nNdAFdIp3oFPdI2VWgJheLJQwGSCGVlf25uZz4eJZ/AKh2mJuTb93quXip+4TOOK/ABw916+r1XL5MMTKimZszHBx6vbzYISGc+HheRga/sFBYWQnOJeDxEjoDZIuh6d1n4bnEV4HMlFySy+WiIVGvqJfAJTT1NpVTy3O7c9Gd6PCWcK86L4dKB9NS0xtPb5zNOqudqg0zkFIAJKQnp6/nX39Q8uAR9pFPvU9Ua1QGPqOUXNrY20jkEuksFp3IxdcxG56SSuI7As2fQF6UsPdBrDW4yUVhdHtNNrGzikHH88AvWTz/N7/lMplMIBhiMsXd3SA/YbH9+fmgwhodwwoIZLq60a2tKbfv9Jw/Tzh04BkJbf8Bv/V7/M/r8D+uwW/8Ar9xJXHLf8m7V9G0hqno/Ndco5/4j7QHQm4M5TyWN6UClBrQF3FSOtAkmp7GHUitp5gmN8HfODgZhHXP7yzHsV7YZ3WmpKchXs6ThFE1wY5bqFKfG5LKHqDBrzJHJLcPf8Krmoafah8zqQRci9eRDbqupt8Cwg4Mem+AeCXcb62t/9f6oesPh38HWr0gUkk+cCHnghnGzKvOK6kzqYxahufihZIpmHFVlB18exUIxCSyqKGRX1TERaNZQUEMJ2fqAxOSvn73seNjKR+EY8d6zl8g3zSkmpoy7O17vbzZoWGcpCRedrYAgwFVDRzIHDKBQD6pQWHcFpx0AkXxJ13Ii88ok8sEEgFNQOvo66imVxeSClNxqZGtkb71vo6VjuMSknaq9pmsMzee3jApMbkYddGn1je6IS6lIutJQUl2WmVWVG2ad23cH53f4u2qnvg2lsR31uX14GqYjO5h+pk6T2jZwICEzhhobwcJKScHfInx82PYWFNuXu05eYSwbzt+20b85m/xP32N37QKv2EleGxcSdz2BUXzS8bxr1lXf+ZaaAv8DMWZ7rKWbNAhfjx/BHWafnBIWtXN9iroOh38bEZnn0eJcVIjupbcw54drmvqiA8AgOohF/k+zehjghLofkW4Xa7FbpltaKcatHMNv28qtsgUC8FFIbWRoN9X3EnA9yeB94Ymn/WpvutcA9YZhG3QjtyoFfOzVvwOraR9R1O1bzy94VTlFNsei6Fgeng9YumUeZTKRCJxT4+ovr7/6VNOYhLDz6/k/Hny3bs9ly4TjhwdlUu6dXRJ166DLOLkzAoM4iQk9uflCaurB7u6hlgs+Ut1ER69RSccq9T0E843OxJC5jsyn9zMai6jlj0hPIltj/Vr8IPY6Hr+db1Mva1hWw+N5gByLO3YtdSbpom2DlG+nsEx/p5pgfY5geZPQyyKIixLo63KwT1kH1Vl+TdhkrqaisjEJlYfTTB9DpkykUhCow00N/OLSzhxMSzXR/R71yhnDxP3bwENcT9+hd/432cMtGFl9+b/kveuout+y765i/fojCjqoQQTK6c2ACIOvE5oSppeLpeT+oToWrJxUuM+j2cO06eDsZ5Puyrw7Jms6KgpPsI0kxkCFEEXiaUHPEuvRtVg0F0xVtjuJtZkSgQAsEPzKKDWUuwExJ8GfH4QD1NLot86x9BN+lE/DxvBQF7RStHSz9N3rHSMa48ro5aR+klDMnVNRqCZi0IB6SQvry82ttfLi2b5kHTt+ki9BPI+Iujokg0MaBaWTDd3dng4Lz1dUFY20NYGKiLiKSO5SSI5ndkUm3467zNDy5ZIJAlJCYx+Rjevu4HZUEIuScelR7ZGetZ52lTY3C66fSHnguLs0eFk7ROxp86EXL3sfe/240cP7f0dLWJd76d6Gmf4mGQHmOUFmxfGOpflhDVWPyG0Y2mUTg64B/Y0L4qUSyQSOkPU2NSfkdzn48g0vUa9oNVz4Gf8z9/8rgBtWEn4YSVp9yr6iXVsw539TmeFMZYYX2MJtQncEG8qfgMS0HXN82nX6WAs9E0dTY+SB2hQ0aFwpuYWU1HNZ2Wo2fMRpplMWyiCnt1M3+VanJQD7phZGN3+fHMzcjloE6uLBndACdkLeG8c8N7Q4LM+OuRH05idR2OHJ1eSDx5OPWzw1MC1xjUVl9rU28QXP9sNehJVlw0MDOLxgooKXno6OziYYW9PMTIinjw1UjUhHNYm6etTTU2Zrm7siAhe5hNBecVgR4eISkMnJLzcpYuTEHyqsig2/VSVOYvKmYj4MrmsX9zf09/TwGwoJhendKWENYe51bhZllneLLh5Ouu0NvqIbtTZ84E3rrqbGtnbm5h7W90JtzWKsb8T73w3CeShBxkBj7Ki/QoyE7GVRe3E1l7Q70AyLd6MiuCDDESjiaoqeLHBLPv7tGsnerS24jevxf/wJX7DStyGlZ3r/0Xc+l/a4dXsKz/2258YjLeQ1yUA1DpgQC1rObQLjpKicy600q8IV9vDkUwz7yoioCI8kaZXkR1hGhXgjHlJEfQ7CfUH3IqT3cDP3Qs4E3NoHuABXXngrlNh+wHvjRLvDfW+30VE7jJO0DwS/wvoVZyqpZOhY11undSZ1MpuFQ1N5gVHLhaLe3oE5RWcpKReLy+q8QPimbPKjHLgIPHsWcrdewxHJ3ZoGC8zU4jFDuLx0v7+sShTUfYxAXp1LyDio9FoNd8zJDJJr6i3s68TS8Nmd2fHtMV41XrbFTgYJz00DDI3cLW4bedoYu5jdSfcxigaOh7djnW8m+hikejpkhQUlJaAzssvrmhs62T1cWTTPJMHPkckkqC0mBXsVX3mEOmkJmH7d8MOCMPGt40rSTtXMY59xbnxg8hdT5r9CNzqlNYIbsg0qZ9ILC3DsdzyOnQDKyBF55AXxiq9JauJxha8TGuBmj0fYZrJdAcYdDpvYJdrsaM7uBFIewVNVVkyGbgArTIQSLoI7RbM9f4+P3KPA/qoTtKzBSt6mXq2FbYpXSldnC7p86xTk8vlQ2y2qKGRl/mEFRBIs3zYc+Gikk9X9/ETFCMjhpNzX1R0f16+qKFRQqdPYsoEll2VsK/uNUR89ZlGde8Ykg31inrb2G2l5NLkxrSgp1GPEwJsArzNnD1NLL0t74XC9AMFrO9F2FiF2LuGuIdGBqcmJmOyyzoq8X34fvGYb0uqKzDWVbjp5TKZhEwWlJT2BXnT71/vOb4Pv/U70PVg4xf4DSt7tn9BP/oVR/8bofUOaew1cKPYtgzQTfQ5bW5yuRzH5Mdgewxj6/a4FUOsczO2Lq6KROqbAteescQcKx4Wf6wEquMRplGNz+hXYdAjyomH7YuCzMpyApvHdOsUsoHaCCDyCOC9Ue69gRC4OSHp+L00ncPo/VqpWtqp2ialJuhONIFLgFc2jH7X32LBjk6lCrFYTnwC8/FjipGR0kITwmFtsoEBw96eHRHRn5c/0Noq5XDG0lF+K3Wi/2HZJ5rh1UqHiD/dTKOiv8jlcu4gt5OBK26qQBfkBCckeQREOzhF2JlH2t6OUWQg69uRZib+D2w8zN09HoX6eKaERpUk5bUXNDIbQZ9+2UR9+hUro6LpZSLRQGsrNzWVaW9NOnsC/8tP+C3rIb2HuO0LmvZq9sWvBff+J/E6IE+/Ay5L6MwBzeYTXlrAG5DktzFsM1vhb7hdCKsKLiW00fplz+9NrijUxMMqxJ9IIQjTTAQl5TQQ6L9q1aeDsKb3CmKssaN8aUYmA/d6yX4A7TjZG7wzJvPypbTj0MYtupm6zlXOhaRCnnicjWrkcrmEzhBUVHDiExguLuSbhuCOIwpr3Iinz1BNTHu9fbipacLqGgmdMa2ewWp2OGUoZ9s5Iv5LZBoVnUUqlTHofXUN7Tl5FbGxeQE+aR72aBeTJIc7CbZGv5OQ1Z0IM1P/e9auxo9dHga5OSf6BuZHouvTyshlXZwu7iBXxQvZxJteNjg40NbOy8hgurmRr1zE79mB3/4D6HL941eEn/5L2f9l76k1vJtrB202yKP1QOfSumhwrBCyVQgIXRIPyaq62e75ncf9yyEt50RAhXt+Z1V333RP50xc/FGlQJhmVFjGiYRAr+1mHbUr9LhbXJNN/EMGIRvc4TjiMOC9Ueq9oTJJzzZbH9pc8mLOxeCm4MbeRhXeYnKZTNzTwy8oYAUFUU1MwbWNirxy9izNwpIVGNSfmzvQ1iYTCP5w6+k/UbPDTX8Fp/cOiPgzk2lGbXW5XD4oGmJR+O0N5KK8enRccZhvto99mqtJstPdpEd34mA1yErfO/cAACAASURBVNooyvxB4H0r99uODg98HW1j3T1yAqJq4vKJ+Y29jTQBTSKTTLrp5RKJmED47Yl+0H1EC9z4YNsm/M/rCD+tpuwDiaf/1jqx7Xp50B7woxhlXuDmtpweFStMZTJ5K40XVII/H/psJwItb4xDVltpZ+80uUpPWnyoaRCmGbWLjhMJge6U1apvUhBmXv67QjMkBrdbH942vzd4Z+yTqxcyT0ImMjusXQ2jZlT7GKi1UCj9T5/2+vhSbt8haB+BqYVw7Bjl3j2Wv/8wr7TLhC/BPquEhZodTqm0WXeKiD+LmGas3gUxEJsqILQwK4vaM9HY6KD8AOdMD4u0x/eSHe8k2P2mBg1b4QLuWbvecrS77W17xfWeU7pnSHlERmdmJa2SwCXwxXwVatCoFQBnVVksIRbbFxVNe2hF1NEB9zvY8RN+y3eErWspB75infm632id2PY7ecB2cLPRUjdwKxA2fizi6WELYyp7DKJrIS1nv2fpw7TmvFb6qN+oHrVKE4lUs+dPAdPo6OgUFhZOpK4zJ41qscetp0QiSUxCH/Yqsb1bmO5Z/6yrsfFArB7gvZEQp2uXcwVSYi7kXIhtj2WJlBfZyEQiUX09Jz6eZmXVrasHU0u3nh7N3JwdEsovLpFQKNNqBxtXzFETqNnhRi1zFkUi4r8CTKOiv4kHhjh0IamNXV9KyE2ujQ8qDnbO9jLPcL2f6nQ3yfpmpI1RFKQJWRgHG1t6Gj1yuOVmbRzyyC7Z1acoML752Q5PDCFDhd1CsQIg8TCZgrIydng41cys+8QJ/N5doNKzdQNh2/8oB79mnVkzTDzr5b5bgGR9cHfRzlzwux4jNlxg9A8k11HuJDRAHgR73MFtCHJb6CLxFOy+qGbPVz3kTmiPgL179y5YsOBvf/ublZUVmUxWBHHGhlWLPW61JRJJQDRae9h0VpfXAzZ5YwLgt5nvs9H/ySXt1MOHUw/bVthW0asUlRiZSCSsrGT5B5ANbsCbuuO1tChGt1kBgSC10BnP+340blWnPIGaHW7K6/OCC0TEf7WZZtTuJJfLxaIhJpkbE5jahOkpzmxKiSgL98jztcl0N053uZesOBtkeS/0gYXXbTvHG4+tbgdYWcQ7uOR5htVGZOAysTQsnovniXkqHnPQwkGj8UtK2CGhvxHP7mFr20bCtv9Rtb5hn/9acP9/Q87fgx+izTAC3VmJZYCoT7HmXKEku5lultK01x3chmC/Z6ldZiuWwFbnO6Fq9nzVQ+6EmAYAACaT6ejo+MUXX7z++uvbt2+Pi4tT0+NeEbXpCKsWe9w7SiSSh0HJl02eBphg2HgKkHlH5r0hN2zH6RTwS1/GJcZ4Lh4qRC6VDrS198XGUo2Nwa+GDM+4EE+fYdjbc5OTB9ra5LNtRb2aHW5cbGd4AkT8Ocg0UJ8ctemlQ7J+9gAdz8PVMrC5nZkxVdHehQF22Z4PnqlBj24/mw2yuhtuauZ718blppONgZf5/XAb29THoBrUlFhEKmpjt7FELMUX02cDCOgQRBeUlrJDw6hmZoSjx8AtrkGN5/uePesZOl9zr68deLhe7rEB/AZd9gNw/ypyNfg11eFf/4Aks5F6O74eMqwd9SvzKuhqo03G/3tU8aG7TOSv6iF3okwD36m6ulpfX3/RokXvvffe9evXOzo64EszKqBa7HGrKpFILrsnm9zMT7TNl4fsa/dZfyd2p1bKwXPZ5wpJheC+kyJRf14+/dEjeD6fcPQYzcqKm5YmJpFUvNGMe+uXnkDNDvfS669mBRDxEaaZSBeSSWUCziCT2E9o6G0o7MlPakgMwIQ65fmYZXmMUIOs7oSbmfrft3K77eDwwMfRNsbdMzswtiaxkFioxECguxCR2J+Tw/TwIF27jt+/H79nJ/6Xn/HbvicfXM/UW8O7ARKPzGMjEH0c9GprTACY7YBMSucNxGB74A8ZnA2pjKwgMnjPsUOjmj1f9ZD7fExDpVJtbW3/+c9/Ll26VEdH5+eff3799dednJwm0jAvOI1qscetjEQiOW6V+vhaWpnFLc/A9Vpx24+kHQltDhUM8kWNTUxXN/DVY/ijhBSj2+yICFFT0yTWSI5bjZeSQM0O91LqPIU3RcRHmEad7iSXywcEEjZVQOno66yiY3M7n8RVxfgXBjpleVqkPb6f4ng38Xd/BKMocxPQH8HI6ZGxn4NNnJt3XlBcXVIJqaSjr4M7yB3i80V1dX0xMXRrG3AHEE3NYeeCH/Fb15MP/A8inkGr9XLfrUDqdQDrLyeWdZFofkU42En6XmJDfitjIu5qavZ81UPuhJhGIpHEx8fv3LlzwYIFa9as8fLy4vGerRFJTExctmyZOg0zTXlViz3uTfnCgVNGmYHXY63dwE9SWpZZEnG1fdEx4Mr8YfsY5fYdXlaWtL9/3KJmXQI1O9ysk1epwoj4CNModYkpPJWIpVymkNze14Dpzk2piQsqDHTO8jRPf3wvxVFhYRC0Kuiu9ePbLo9MApzsEz39n4YlN6VhW/MIRZnMqAi6jS3x7Fm85j78ru347ZsIW9ZR9q9hnVnDv71OYv+9PEZHVmDfXhzvii7cO7z7wCEvjGtuRzNF1QSSmj1f9ZA7IaZ5991333777UuXLtXW1iqBzuFwPv30U6XI5z11d3dfsWLFwoUL165dW1FRMWr22NjYf/7znwsXLly5cmV6evqoaRQjVYutmHLUcB2RZWCQGXItRCv0u4BII6qJ6bMJmFOn2SGhYhJp1FyvRqSaHW62g4CIjzDNC+7DkD8CmyroaWHXFOOyk6pjAgoCHJ94mKb95ozwbHc4qzsRpqZ+d20e33/sbBXi7h7lFR/sWuxq03zvRuexI6CdbcdP+M3fdm9dQ9Na3XfpG6HJt4N++zoibwX6OJ1xjt39uPBcaGUMtofFH2X/RjV7vuohd0JMExoaOjDwHPa+52qn6OhoDQ2NwMDA5ubms2fPLlu2jMFgKJVQWlo6f/78R48etbS0GBsbL1iwoLGxUSmN0qlqsZUSjzyNw3YbGoV7XQ+56Ha0SXMXQesww95eWF0tl06BN+HI282oGDU73IySZRKVQcRHmGYS3WY6skCGOBaZ393ciy3syEioiPTL83XIcDNJdb6bBHsi2BhFW9+ONH8QYGHq7vLAMeTWw5QLRoUHdKp27m7d8h3ux69Iu1f1nlrDvrmWZLkp45GOo73ZVecQq+S6SgJbcasbNXu+6iF3QkwzHSDCZa5du/by5cvQqUwm++ijj2xsbOCrUEBLS2vnzp1w5Lp1686fPw+fjhpQLfaoWRQjrdKabI3v2xsEO98ywe3fzy8qUrz6aofV7HCzHRxEfIRpZngffsZAFH5XA600vyk5rjjE74mnQ7KLaeKwN/awAnQryt4g0kU/zPO8Z+gJm4SDRun7zj/deaj8l82NWus6Tq5qufxVrvGeCGejnPS4Xga4d7CaPV/1kPuSmUYsFs+fPz8pKQluWh0dnT179sCnUOCTTz5xdnaGI01MTL744gv4dNSAarFHzaIYaZxY7221w/SuU/D5YPyxY7LBUZRNxfSvUljNDjfboUDER5jmxfdhmVwmkUpEQyK+mM8d5LJELIaQQeVTe/p7CFwCjoPr7OtsY7e1sFqaWE0NzIZaRm0No6aSVllJq8TSsPBRRqwoaC6NK0r3Tox0CAiwdPIxtfC1uhtudzPK6WqE68UwrzOhfrrBATr+wUedwrXMYw4axhy5kHjyeOaVY2VWt7M9bCa9fEX1kPuSmYZCoaBQKAwGAzftrVu31q5dC59CgQULFkRGRsKRHh4ey5cvh0/hwODgIO+3H4lEQqFQLBYL3Mzo+X8JmDZLp1WGpvohJyNbbLyfv4BZnEMoFKLRaKFQOItlUKPqiPhztvVVN/2geJAn4vXyeyk8CqGP0Nbb1kBvqKJWlZHLComFOficjK4MdDs6tjU2ojkiqCHIt87XvdrdudL5UcWjh5iHpiWmd4vuGj41vJ53XT9X/0L2hTNPzuhl6h1PP66dqn0o5dDUH8kHj8YfOBW277LP7luOmmbmx2xvn3O+ZuBx8X6gjpW/ToCfbjB46ATBR8Bxz0k/+CwWC4VCwc5i8LAMBV4ppjE1NUX98RcZGYme1C85+JGW10rbizuDdMOjHkyykEndGcmEIIAgMC0IJCYlRidFhyWGBSQEeCd4u8a7OsQ52MTZmMeaG8cY3465fSP6xpWoKxeiLpyJPKMbqXs04qhWhJZmuObu8N07wnZsDds6uWNb2LZfwn7ZHb5bM1zzYPjBwxGHj0YcPR5xXDdS91TkqTORZ85FnbsYdfFy1OUrUVeuRV8ziDYwjDY0ijG6E3PnXsw94xhjkxgT01hT82gzq3ATu6D7zj533dyMvJxv+NtdD7a8HG58LvrWqfhrJ9DntdNOHnhydE/ugR0FuzeXbN5Q9sO3mB/Wlfy48enWXU9+OZay93L8gfuR2g5BJ/wDdYMCdIP89IK8T4KHn06gn06gt97FSUMfGRk5c5lmaq1nU6jTlOWa7PVZGb1rbayuT9yDvK4qspA/oMaL8mzKqvrNbjZJMqm6IuLPfJ1GLBYLBgS9/N5uTncrs7WaWl3cU5yFy0pqT4pojvCr83OtcrWrsDMrMbtdcPtK7pUzT84cTz8+rtJwMPng1rCtB5MPHk8/fubJmUs5l27k37hbdNe81NymzMYR6+hW7eZb5xvcEBzZHBnfFp/SkZKJy8wn5Bf3FFeQK2pptU2Mpg5WR3dfN4VL6eX3coVc4aBQLBbDPVE8PEgNMJnCnh5BRwe/oYGHxXKLijjZ2eyUVFZMDDM4hOHtTXN2plpbk01MSLduEfX1u0+fwR89htt/AKe5/4+HJm7vbtzuHbidW3A7fsJt29ix/YfGfXurDp8oOXo5V/du6plHMef8Ii+ERF4MibgUEnE5JOxySPhVz/CbTsF37ALM7GLdXIsSQ3tq88S0FiGbgk5KfDV1GgAA1q5dq6+vD2lYMpns448/HtUjYNeuXbA69u233063RwClK/+i5yrb8/9O3H00SC809GxMtGFmYXAdoaFXPDAE1+SVDCATFXN2okL9aeFJPBESmYQn5tEFdAKX0MxqrqRVFpIKnxCeJHYkRrRE+Df4u9a42mHtTEtNbxXe0s/TP/3k9NG0o1qpWqoP7VTtk09OXsq9ZFhg+KDkgXW5tUu1i3edd0hTSGx7bCouNbc7t5RcWk2vbmG1ELgEmoDWy++NTYodFI8/KSuXSKT9/RI6Q0wgDLS2CmtqBBhMf14eNy2NEx/PDgtn+fkxH7vSbe2oZmYUIyPSlavEM2fB7xkeOAitlxj/78FD3ceOE0+dJF04Q9E/Q71+hm54immkw7qtzb6zn3N3B8foR6rhdpyRdsOdi2X/v73vgGrjStvWHscle+I4u9/3pWw2m5zU/dfZzXo36+wmcZxNcxzjksQlrrgXcAMbDDYYgg3GBdO76VX03o0AIYpoAiFEUW+oV9RA0vwZ5MiyTJHB2JTLmWPfmbkzc5/nfec+eu+9c++Fi1XO1/PPRSLPJiEdkpHn0pFOWekX8jLcc9K8MiOuID1/Tj/tnbvnZvnWELRbLj6zldnPtVxjbZov/qzup4EgKD09fenSpfHx8T09PUePHn3hhRe4XC4EQXv37nVxcTE6LgaDeeaZZ27dukUkEj08PJ7AKOfh4eGMhPD4m584BvzNx/mLtJ0HM3ffSDyYmnwyH+mGqkvvnceSM02Hm0JdM6suAfCnJrTwxJG6YalGOjg0SJFSuoXdRs0opZbm9Ock9yRHd0UHtgX6NvuaNONw+eHdxbsnFgzj2V1Fuw6VHzp195RzrbNng+d17PXg9uAYfEwaMS2flF9Jq8SwMB28jl5RL1POFKlFqhGVNTNCGaeVGhGLh9lsDYkkb28v9/OTVFbKioslmZmihERBeATP7/bgVW/2pUssx3OM4ydo+/dbLFQ4kWZs3Ubbs5d+5AjzzFn2BReOpyf3xg1+YJAwOlqUmCTJyJTmZMnz0hT5icqCO6r8YE3+jeEcj5EsR336IUPSj1D0l1DEZ8ZNE/I1//Y2su8RnJcT2uNGyaXYDOcspEse8mIR0q0Mebkq16e2KhJbgyQU5vTdySC4xLVtCbq3YvS28AaP/O6MFkYPRzbBFJzT9PzZrjQQBAUHB//pT39asmTJ6tWrm5qajPXO2rVrbW1tTXVQRkbGu+++u2TJkpUrVz6BLzeNpDvEVqCvb6qP+s/ZtHUOIRtij6+v2Hoif69/8tGMFIeS9Euo4pB2dGY/7i6DguMLmAqtaj6EO9N0OJPJ5mhigcPXaDUZuRk8OTzwiSwlE4SEVm5rPau+klZZQCpA9iLju+PDceH+rf4+TT7u9e5ONU4nq6yNM7YXbt9dvPtw+eGTd0861Tp5YDx8m30D2wKjOqOSe5Jz+nNKKaU1jBrsIBYvwJMlZI6CI9VIhydbI9mg1+tVqhGhUMtgqHt7lW3tCnS9vLJSWlAozsiABSMyih8YyL3mOxphXIAjjCNHaLv33J9wfXTiD/L3P7R/8SX5+x8sxIO64yf6gYMMO3vWufMcN3eujw/vtr8gPEKUkCBGIqUFhbKKCgW6Xtnaquru1pApw2z2iFisVykNQ0J4jWdmK7zYc1cmvOpzzQ2o1BXKOQZPlxn9lUlIzBPD4d+IIg/TI90J4UFNwUlVt/JyvcqQl+8iPWuRXhjk1aZM35bSyK76zP7Oaga5g9+J5xe1Mv3Ke48ktBjn2bQJQm+LaPAs6M4ajV101q0PPU3PnwNKMxNV0sSwJ32ikfSYOtKPgZXCLEd9xJrarF2nK+32p/1wze2rom1fl35/JGeXN9I2ItkuO/VcWZpbLfJqM9Ibm+ffXp3Ygy2iENBsapeAT5cPSTTmn0dN+uinnmGaDvfUyz/NAswD+CP6kaHhIaFKyFKwSBJSt7C7lduKYWGqaFWF5MKMvoxEQmJkZ2RAW4AxwnCudT5TfeZoxdF9Jfu2F2z/JumbbQXbJg019hTvOVJ+5Ez1mQt1F4xxRlB7UHRX9D3NoJbWMmuxg9huYTdZSh4cGrRKMwwGvVark0iMQYYK363EYhU1NbKSErhVyhhk3PaHg4yLF1kODoyjx2h79lrbJLV1G23vvgcijOs3+EHBcISRnCzJyhYXFlX6+soaGmDBoFCGuVydXD72fIZ6PaSWQmIaxO6AyDVQdy48tz/aH6q4DK9shtwHT/gfudZcP+6no76Akn6Esg7ri5yGim/yi2Kp+TndWZXNKfV3o5rzb2OR3nBNYtry/NvvJsBVSm8jh90vlglVgxIVZkCQ2EB1z8Nvi2gwqcuRhBa/8t6SLg5FMDSFOmeanj9xlfuUx55Ns1KY4PKJYU9wofGUkXQCS2wThI5A9UP1AfBCzmm7apsDA7E3z9w9fTR+y89Xvrlz5NPi9f+qXP9N5ZY9ZT85Fp4Jybucl/lzLfJKk8lRkN7YDB9sYQiuOrGnKZ/chWKS2nkcklTKVw1rZuOMA9N0uEm5neUZni58eGISnVamlQlUAqacSZKQCEJCG7cNw8ZU06tLKXBLVBoxLb47PgIXEdAWcB17/eeGn13rXB1RjnZVdgfLDu4qnrwPw6Qiu4t3Hyo/dLLqpFONk1u929XGqzeab5xKOxWFi0rpScnpzymhlFTTq5s4TTg+rlfUy5AzBCrB0PCQTj+56xpGRnQy2TCXqyFTVN0PakZikiAikufvP+jtzXFzYzk4wg1T+2xN625YRBUWu8Ygg3nyJNvZ+V6TVHCIMCZWnJYuLSiQV1Yq6uuVbe3qnp57giGV6rXaSdvTYNPn5g4rpfAqZPxeiNEM9VdC+CwIewequwWVu91TkYRNUOTn95Xj1waue0fiNsCzLOefhGf4R9+GWmL1XblDOBSvtZWC6cFXkZoLyNVJxKIQXIbPfTkxVhe5t9ur4glN+WQCmk0nCEWcIa16RK83MERKVC8vBk25mNO1I/K+tHwfWu+c2RlbT2kkCyVK7TTfrGl6/sRVLlCasa1jJF2r1Z5Mbd8W3qDQjMDBr9G9ov4LFToocal4em0+Kf829pZ74v5r7l8l7P+4/Jt/VH25qvLLVVXffFq4e3uW47lM36CciNy8uPq8CGzWrRZz+TGmc261lUXj69L7WkupBDSb3MFnD0jEg0MqhdZgXcw7NoBpHJ2mw03jybPi0qnB1xv0qhGVVCPlKXkMOcOoEB28jiZOUy2ztpJWWUQuyu7PTulJicXHhuHC/Fv9fZt9PRs8jSJxsurk4fLD+0r27SiEF0CyfttVvOtg2UG7KjsHlAM8SqrhZ99mX2PXd3x3fDoxPW8gr5QKN0k1cZqMPRl0GZ2n5Cm0imH98MOMjwkf7s/QaEbEYi2Tpe7tU7a3K+rrZeXl0rw8cWqq8E4MPziEe/3Gvd7vkyfpBw6aL2FuoRPmu6OacYBhb88678S57MH1ucYPDBRERYmS4CBDVlKiqKkZam5W4bs1ZPLw4KBOJhs7yHgYicUR3QikFEFiKsTphKj1ELEYwqVBTZFQ7U1YQgpOQxn79Qnfi66v0oevmVBFdkN59lD5JfjC5ii4WhiohNvHhCS9QjgkHILXEegUdNexJlSUtvI73fWZ/R2V9L7mQVavWDw4ZGp7H9bpSXxFBYEbXkM6n4HbGo4xRS1bwzFOmbiIGlIlgUvmKybodLFAb83umKa35kJjHqA01nN1P6eJ9Koerk0QOqt1dEpNpQjqKYBKLtxvYM06BLXGQYIBuUbWxe+q6i/NKfZLD7JHOmzK3/px1ZerjFvlV6uQP/073P4zXw8bn4Dj1xK8/JBREanpsXGFieEViberE67WJnrVJV/BpF5tNMXOGT7Y/MCO8jvddel92CJKF4rZj+XSCUI+XS4TqLTqkUl/o93H8ygpE/ZHuWgu5R3RjxhVQaAScBQcqpTaJ+7rFnYbhQFFQ13LvFY0UFRAKsjqy0rpSYnvjo/qjApuD/Zr9fNt9vVq8LqEvuRU63Sm+szxyuMHyw5a2a1toR9GkTheefxs9dkLdRc8MB7eTd5+LX7B7cFRnVEJ3QnpxPTcgdxSamk1vbqB3dDOaycICWQJma1gC1XCoeEhK1cXtrANLBvmLVRd+PstVJmZ/JiYupOnOL7GLg1nhr09bf9+yvZ7S/yZi4RlerRtinH0GPPsWbbrxcErV3l+t0c7MxIlWVmy4mI5CjXU1KzqwsOaweHopNLHsEgg3Iolg6RMiEuAF6bsK4erfuwdOJio9ISKHKHsI1DKDih2/bjiEfEZ3MwVtwFK3anPPkoK2aqr9IIaQqC2RIiQD7eMsdshEQVWqV/DON2IXiFW82gyipWKkjXQUUnvb+Gy+8USrvLhlgyVVtfDkRV2sgMq+0+ntRuX0TSqy47IBtecrhg0BdXLY4iUU2gTs7D+BLvTfPGB0kzA7binTKQP6/R7Y5ptY5uHdfr7ubVK2AXvXoUd1Bg7x66Hck9AKF+oEwkH3QoeZDAoxDxyfWnbnZuNrsebdto0r/+sYd0ndd98hPrqw7J1/0zbCWuP9+WvnAK+Oxq3ZS9yt23akcMJp45HOzmGe7mHBFz1j7pxI9n/alaQe0GIW3GYe2nE5fKoyxXRHlUxnndjPavjr9ak+qGzIhqKk1qrczsbK3s7Gyn9XSwWVSgWKLSq4alJkQn7fbwzkDIYDDq9zjQDh0QtEagEg0ODLAWLJqORJKReUS9BSOjid7Xz2rGD2EZOI5qFrmHUVNGqyqhlReSivIG8zL7MNGJaEiEpFh8b1RkV1hEW2Bbo1+J3rfmaV4OXe727S52LI8rx9N3TxyuPHyo/tK9k30+FP1nU+Ba72wq2TdBRsbt498Gyg8cqj52+e9qpxukS+tKVxivXsdcD2gLCcGEx+JgkQlJGX0Y+Kd+oEBgWpmWwpYvf1SvqpUqpHAVHpBYph5XWtD5Zw/oDsjEwoOrsHGpskt+thjvD05HCmFh+UDDcE+5++d7QqclaqO71iv/wI23vPsbxEyzHc6N94HCoIYyOFqemSvPy4A7w+nple7u6t0/LZI4IhXqVVWO9rEEE5zH2gkgYEK8HfpsGKuH1vlrjIEwQ/NKVXIDftbRdULzNRK1YEZ9BMd/CHe9Zh6FCB1h46vzgKKQzA+org2gN0CAekjDg7hb9vVfb3PMNBoNGOSweHGL1iftbuLgqRkPOQFUcoSCwY6xWr9EYxagoWC6rD1aU8T6H0OsNg1I1hiRIaaJ7F/ccNuvGtwlC74tp9izoTmqkYUgCrkw9tVfYWp4fzGcO/8EzVu0BpbGKJotM5qQjWxg2QehqouUM0/AluhF4pVVMMBx9J2x64HeTSXtaYuFQndmqY/Wqu7tkFRXC2DiOpyf54P7ezRsJm77Db/wWZ/NNu81Xjbs33j21I899X7zfwdt3Drshj5wohltUthds/yl3117kwYPJdkdjHewjXc8Ee57383XxDXD3Cvdyi/O5kHrN+d684g8kLqR5uyVd8Yr9+VqU562wy0FB7uG33WJuXkr2vZThfTHP61KJ58VK94u1Fy+hL7nVu7nXu1/GXHZHu+9P3X+5/rJng6dng6cHxuPhzb3e3a3eza3e7RL60kX0Rdc6V9c6V5c6F6dap/M15x1Rjmerz56+e/pk1ckTlSeOVR47Un7kUNmh/aX795Xs2128e9Lq3qL2f6TdHYU7dhfvPlB24GjFUfsq+7PVZ51qnS6iLxqDhhvYG0ZViO6KTuhOSCOmZfVlFZAKjMKAZqExTExQVhCOi+sT9xm1QagSyrVyjU7z8NK8Fm4znd0HNINEUnXhh5qbf+0MzxYlJgkio3gBAVyfaxw3d1g2TtjRbK2ONmz3w0OnjC1U13yNsvFAC1VTs7EbXMVm5yOR2sc+0Z8x+JCx4f4PZgtEugtHDO3JUGM4PByr3A1eyCvrz0HS4QAAIABJREFUECwME8cfEZ/BLQpJP0AZtnCvSfkl+PKmCHjNY2IxRKmDOLh7IchkI9YgCDLo4VXLJFzlIFkKD+JC0RNvllQn9ZSEd2Vdb324rbsgsKMqjtCQM4CrYvS3TKIoJmdQD+uIg7JSPCcUNXA+A7ct/H5Hy6Zg9Ink1uulxF8qmVaaePp9LaaHTiFhXulN4XKgNFMg7YFpTeXq4R/DMKdS2yf/faESw2NRunPhUSiw9mx+QHuM0U/8RvhHVtlFCH1bVxuuLgqTpwSKQq/zrlxmnT1N3bXLolGCfuAg68IF1s3rjJhwSl4KsSavq+tuC70Bw8KgGKhyavloI092Ci49FpMUXZUUXpgUkpEUlJAUEJnsH5xy+1aanw/SzyPr9sXc2665fq458OaSfQvesm7CW+ZNl8zrl9J8PBOveMd4Xg938ws6fc3LKdTnfNQVh7jLZ5JcT6aft8s6eyzv5NEieLKmw+WHj5QfOVpx9FjlseOVx09UnrCrsrOvsj9ZdfLU3VNnqs84oBzO1ZxzqnW6UHfBtc71EvqSe727B8bjSuMV7yZv32bfm9ibfq1+AW0Bwe3BYR1hUZ1RMfiY+O745J7kdGJ6Zl9m7kAuXPtTSitpldX06lpmLYaFaeY0t3JbcXxct6C7V9RLkpDoMjpbweYpeSK1SK6Vq0ZUw7opRnImL5nm+2a8j0Gn0ykUwzyelk6Hx922tw9hMPKqKmlBgTgtHe7YCAqGP+tzv8w6dx7uDLdSM374kbJ9O23/fsYJO4toQ5SSIsnJlZWVK+rqlK2taiJRy2DA0Yb60X4XWwtfr4OjAVg5+uAfW5RaqLcEDhdaYuEfXqhrsIfnn4IyD1olHhGfQbHfwc1cxvijwh3uBYH1I+VeExarDR4urOBDw4+wfIlep1cptLCQUKQ0vLC3aRB3l9FcQK5N6yu/053/UHSSfrU50qki6zo8hrg2ra+lGB5BSukU8GgyhVitGzFr1TC5y0MJg8EgUGiwVBESy/AtJR5NbNk4uhaZsTXsp8hGl+yuqFpyBYE7wJNrRiYfWPHQE2bqgLWmH+f5QGnGIWbCwxakh9eQbILQOIZkwovGOqmWQYIBiIaBunPgN6fKC+5OTNk+XtRviPzvSOQmdeB2+bWfRJd+4p3dzj78A337Bsp3X1FsvoEXdt1kQ9m8ifL9FtrefcyzZwe9rvBDQsRpabLycmVLi4ZMGRGJxuwyNegNWtWIXKQWshTsAQm1S9DXPNiFYraWUhtyBlApveV3uguDcdk3W43vW/rooO2Hf9YhvbHZN1sLgnClkfiqhJ7a9L6GXFJLCRVXxSCg2X3YQQqOzySKBslSIUsh5auUMi3cpfSURjeMZZJJjpmb3qDX6xRDIwIB/KFGX9+9tikUCh50m50jSjZ+Cj76ocZlD5aTE/NROsMpW7fR9tlatFCN0Rlu6tiQSB5Dx4YFeoMBGtFCKgmsGYIBiIMbIddhEr1GunLgDnPsHbjBCnVtNOZwgLKPQum7ocQt0J1vxvgJZTEEK/JzuHUrdSfcU1LoAA/EqrkBNYZB7UkQIQ8aqIIYWIhHhKQsuKPl1/Yri9JNsAsP0lPD/sxnyJlEEamN113HaiujNeQMVCcRSyO6cm+3jem9sAPfaC0K7axK6KnPGmgtpXbXsUhtPHa/RMCS5WTmabWPNohLM6Ib4MkrCNzoOvLFnK6dUY2mDvyNweijiS0+JT1ILKOZIuLLNZP/Wp0A8wyfMvf8KTwKKM0USHsgpoEgiCNVbQxGe+R3T+VeY16j18N9jGN/1XUcboOO22A+Ht8Qumb4xifKy/+RnVstOv4hb+8/OD/+nbFhFfXLVZTP/0H54kPKl6spX/2b8vXHlG8+paz7jLb5a8buLezjuwedjvOvOIsCr0riQ2TZiUOVhapmtKaXMDw4qB8aGtPvNWpNTkaeiCsXMBWcAQkNL+xv4RLQbFwVo6WYgskeqEntrYwjlER05Qd2ZF0fY0DdmG941vXW/ID24rDO8jvd1UlEdEZ/Uz65tZTaWc0g1LP7W7jULgGrT8ylyoQshYSnVIg16qHhYa1uOiplHDSlk8lG+Hwtk6kZGFB1dcGtUrW1srJySW4uHGHExgnCwoyfgnPc3BhnHbDf/0Ddf8DK0VNwDGrSDAdH9qVL9zrDw8KEcXHidOS9cbfoemVbm7q3916oMf2ODYMB0g1DGjk0JIR1QkSBK24ODqI3QWQUHGHgs+HmqeYoWC1qrsMdFSUX4Dgj+wgsGEk/wmFE1H8tNEMfvkbi+zfL8VeRa+HMyVvhL0Vy7aBiJ6jSAw47GsPhnnN8NtRfAf+c4nTCLi3nQlolZDCM6fiTHtSN6NVDw3KRWsSGJxugE2D3+1VFSPBPomh8QVBHpu+4jpd7u600sqs6idiQQ2oroxHQbFI7j9krFjDlcpEa9qhxymZNVWswGPhyTTMFDlmulxKPJ7VuMgtZtoZjzmXgQqoHSro4PRyZSjuLQpZJmbcG/gQ3AUozATnjnnqYdJ/inimGNeM+ZLITpnE1vB64+uivgIf2tyXAr3ftTbjiKHYy5JzQJe7WBm1UXvlC7vxvsf2/hIf/ydvzD862VaxNH9DX/Y36+fuUNeNsn/2V8vkHtHX/ZGz+N2vHGo7tl9xj3/HPfi9w2dlj/5345gl5uNNQnJsyxVuV5acuDNVUxQ3Xp4+05OnwFfq+WgO1ycDqgHg9Om6/hk0aYlAlZDq/n8khsOg4NqmF3dvAxteyOirp2CJKQw6pNr3vbmJPeTS+KLQz93b7QzVFM/zp65UmpFdjuldD+s8N6Z6YdM/69MvodPe6jMu12T/X5HmhCq/cLblaWeZdVuVdXH01v+ZKNvrndIxHUqNbTJNLBPZ8UIvDrVZ777Zjl9sPOHXsPo3bdrRr20HC1n29P+4a+GE7efRTcIv2SdOuccQt/djxph07WK6usGDc8uOHhgpj48RpaZLc0bap2lolFgsPoBoYuPcpuOahH6oGAzxOaUQDaRSQSgwNCeDvMyQMSESG25q43XATK7MVHitFqYN/3feVwW1EXZlwZ0Nr3Kg2BMPd16hrsJVLXeGYIM8O7sZI3wMlb4O/CoxZN15YbKEcD+xGfwVfm7ID7uTIPQHftuwidPfKr5qRAHVljnTn1yf5jFAb4dFcYircYKVVThBzGPSGkWGdVjWiVgwPSTQyoUrCVQqYCh5NxhmQMIkiapeA3M7vb+ESGznddazOakZ7Bb2lhNqUT8ZkD6CR/TUpv/5wCWif9IdLrl9bcVhnVTwBjew3Dsjsax6kdQu5FJmEq1QrhqczOuvhtx6eCE6nJ/MVVT1wyOKa0/VT5P2QxSYIfTihxae4J6WJjiEJOFLVdJ4+WXUw4+fHhG/9U4HSWM/V/ZwPk04VDG0Lb/g+tL6VJrqfb1al7rWEiOF6TUiCh9Ywmg2kan1n/nBtvLogUJlyRRHlIvM/Kbl6UOiyg39mM/fIOs6e/7K2fsLYuJr29SrK2r9RPnufvOb9gY//H3k8fbI4/tn71M/fp37xV9pXf6V//Vf6ur8xvjXb1n/AWP93xnf/gLcN/6R/90/6+n/Sv/2Qtu5D2jcfkr/+qP+bNYR1X3atW9+xfnPrd9ubbPZgNh1EbzlW8/3J6h/OVm51Kt92sWS7R9GOK/k/+ebu8svaHYjcE5a2LzrZNi5xf6L5lnQgKelgctKh5KTDKclHUpOPpiYfS0s5np5yIj3FDplin5F6MiP1VGbG2fScc6kFF1JKLiaVX06q8kqs8UlE30xs8E/EBie0hca1hUZXel3tjIjojowgRIUSo4J6owL6Im/3R90kRfqSo7wpkVeoER70iEuM8AvMsHPs0DPsEPvBkGPc4EO8QFt+4C6B/zah/4+igB8kAVskgZulgZtkgRtlQRvlQTbyIBtF0AZF0Iah4O9+3dYrg9crg781bqrgb1Uh69Qh61Qh65TB3w4Ff6cI2SwP3yGL2iuNOSKJs5ckOkpSXCRID3GWtzj3prggQFwUJi69I65MFN1NF6JyBLVF/PoqbgN6sAnLxuJYbb2Mdgodx6Lj+TS8kNoloHYKKDg+uYNPbueT2nkDrbz+Fm5f82BvI4fYwOmqZSQHF+Oq6V0oZkflPUmozxqoTe29m9BTfqe7JLyrIKgj93Zb9s3WjGvjBhZjxrUPH8y63pLr12ZsjL2b0FOX3teYSxqNdJnEBg6pjcfoEfFoMil/VEXMx3/OwKtnfOv5UmUHQ5LTDs/vcjL1gTHHW8Mx5zNwoaiBUjyHODjHQpZJCXu40pv0EvMMQGnM2bA2PSbp/Vz5T5GNm0PqMSSBtTeaU/ng+aMUChWDVhYZIm+qU6JKFaXZ8txkWVqUND5IEnFdFOgpvOEquHKOf/kU7+IJnvMRruP+wTN7B0/u5Bzfxj78A/vAJratDXvfBvbe9ew969h7vmHv/oq96wv2zv+yd34Ob7s/5+z5nLNn7eDetYP71g7afsa1XcPdv4Z34FP+oU/4hz8RHPlYePQ/wmP/Fp34SGT3keTUaumZ1TLH1XKnjxSu/1a6/Vvl+R/1lf9ofD7WXP9UdfMLhd83Mn8bccBmof+P/NvbB/12sW7upd/YT71+iOR7rM/HjuB9pvPK+bafXZo93DHuXrWXrlW53iq/EFDsHFrgFJF77k62Y1yGQyI8Ce6vW+qpeFMa6TA6Oa5DCtIxBemYCm/n0uC5cs+lI88jkeczkE6Zo1sW0jkb6ZyDvJALby55SJd8pGsB0rUQ6VoET4N4sRh5qQR5qRSeD9GtHOlegXSvRF6uguez8qhGeqKQnjXIn+uQP6ORXvXIKw3IK43Iq02mj6serqNn6MiYvXQZPnDnXH5gR3FYZ1k0viqegEom1qb3oTP7G3JITQXklmJqWxkNV8XoQjEJ9ezepsGBVh4Fx6cThKw+8SBZyqfLRewhKV8pF6nhrjvViG5YP5120cf1Yo3o9DThUHUvL7ae4pbTuc6nYENgnamjZX9s888FhMRGWv2AgC2Z2yHLpIyNWelNepUpA1AaExWPkBiPdKpgaM+dpk3B6OresQY9P8ITZm/W8bA/zRLr9XB7lG4YbpIaVsHtOdohuG1KI4f7k9VSuE9bKYKbqsbdJHAetfTXTTZ64ei/GoVBo9CpFMNyuVoilw6KslOyhSyhhCMXc4ZE7CEBU8Gny3k02SBFyiFJ2f0SVp+YSRQxCCJ6NxwlUDoF5I4x4gNCPbu7joWvhbcuFNO4dVYzcHcZuCp466ikG7f2Cjq8ldPbymltZaNbOa29Aj6Lu8vorIavxdeyuutYBDSbUG+59WDYxq23kdPXPNjfwiW18cgdfGqngIYX0glCBlHE7BWz+sTsfjF7QMIhwUAGyVIuRcalyvh0uE9OyFKIOEN8ljQrJV/Igbs0hqQajWpEN6Ifr2PjabrElJ6t0xuYYiVmQJDWTL9eSrRLaTP/THJLCHrrzQK/cmI+jt3FlMrVY8yhMKXHzo2LpvniA6WZipknIJ0lUe2Pbd4YjC7Fc6Zy61l/zQTYZ33ZH0MBAfyprRrwGKh/3LfQ6w1siaqRLERiGTfLek+ltv/S+m2KV2yC0IfisT8XEBIaqLV9fIZIqdZo5w32KXA5Tc8HSjMFzi3HnlncgidTG7/szetgWZyaB7vTdLi5zgCAP0drW3NduVU+hq7sj232yO+OQVMqCdx+rlw9bDkwDJh+OqYHSjOVqm9SnxMqNHbJbTZB6HgM9YGJaqbytNl1zaTYZ1dxH3dpAPzpVDeP2xrj3s/4gWQrTZTdxvSr6DuTZhmv2MY2X87DR9eRy7sHiYMypXbytaOA6adjeqA04zrrBCes8TmpcvhseodNENouua2HI5vgbnPrlDXY5xaiRyotgD+d6uaRqLY+s8FgEA9pcQxJYSc7pHrAObPTfPJ843Rh7o+oKw8/HZh+OqYHSvOwR01+xEqfG9bp07H0LaONv79MajSkmfx30+TPfto5rMT+tIs5U88H8KdT3TwWqxjjlTa6OK+DFXy33ykTZ/EVy47IhgtZnaGogaJODp712LrugemnY3qgNFNx/kfyOaZY6ZLdaROE3hvTjBkQzPWBOo+EfSrkzu5rAPzpVDdTsK1Ob2BJVE1kYWYr83ZFnwOyw3wOSpsg9E+Rjc6ZnSHVA3kdrHa6WKB46FPZKTx1rEuA6adjeqA0Y/nUZMce1ef0esMvzcHGiP5KIUGg0Ez2hNl7/lGxz14kUyoZgD+d6mZSypXakX6uvLqXl9RIu1YCjzM2NgmYhoTtudPkmtMVhiIVdrI7mRKJcvK1Mid9qJUZgOmnY3qgNFa62QPZpuZzEqX2einRJgi9LbwhtZk+R8fjTw37A/TN5R0AfzrVjbnljYPBsFRRbjsrpHrAJbtzz50mk6LYBKE3BqMPxbd4FsDjwSoI3B6O7Om+MsD00zE9UBpz57c2PR2fa6GKjGOgt4U3xGOoT3fNCWsBm+WbDnaz28zVJIA/tepGPawb4ClQo8GKT0nPw8HK9ogGB2SHX3lvOpaO7hdQBEOzas58eIqz4eGpYZ+rvv5guacJHyjNg3RatzdN0nV6QzWRdyK51SYI/UMYJrqOPIfa06aJ3TqCZ28uAH/S2lavN3Bl6laaKB/HDq8hueXiD8RhHwpWsB753dF15FI83Gn/JBvBpuxbwPSTmn4CboHSTEDOuKcei8/p9QbMgOBUavsvk0BvCa0PqR7gyh5hHadxCzfDJx4L9hku4wzeHsC3qG7k6uEejqyCwI2rp1wtItglW/asGNcJvF5KTGmi1/XzZ2GwYqW7ANNbmN5K3ozZgNI8El33Mj9GnzMYDFiq6FwGziYIvSkY7VPS00oTzebZxR8j9qlQ/7SvWcjw9XoDUyj3T8rLaqGP2bOyKRh9JKHFGKyUdHFwDIlAoZnNzvxI3rSQTT/9xkOgNI/kbPcyP3afMxgMOIbELRdvbGSwjW1ObKCyJaqpFG6Gr3ns2Ge4vI/59gsEvlI7QuYrMAOC7DZmKGrgch7+SELL5pD6DYF1n3oVGucz3h7RcC4D51/Zl9nKbCQLGSLlPJsOw8J1FojpLVCbdqcJHyiNiclHSEyT9AmexJWpU5ropnZtl+zOqh7uw1MwTXCHmT41c9hnuuSP5f7zDL52RM+SqFpp4pIuTlw9xbeU6JDesSv6geW8bILQ34fW2yW3eRUSwlH9njH57VSheOjJDS9+LIab/k3mmekflZBpwgdK86iEw/mnSfqkj9TrDR0MyY0yonFy2W3hDQGV/RiSYDYsBzvT2Ccl5+lmmKPw9XqDUKHpZkvvErkpTXS/ij7nzE7b0UnHzfvqjRO3OGXi/Cr6Upro1UQegS0TmYnKHIX/WHxmIWOffqUHlGYqTvjEfE6uHi7q5BjnT7MJQm8Oqb+Y05XTzmSIlE9rroEnhn0qhpn5a2Y/fLl6mDTa8JXTzgyvIXnkdx9ParWYD9/4ab1Dese1EmJsPaWki9NKEzHFSu2IfmIKZz/8ics/nbMLGTtQmil6zsQCO+lNn7zPDUrVhZ1sj/xuU5VxKB4bhiJhqaInHOg8eeyTmuNJZpg98FVaHVUw1EQWFuDY0XXkq0WEU6nt2yMaLGKULaH1xxJbPfK7w1CknHYmhiQg8xXWTF08JquzB/6YxZvRgwsZO1CaKbrWnFMaE07NiK6VJgqvIR2Kv/eNwqZg9KnU9pDqgUoClyFSzvRQH/C+TWesp8mOVib0eniWYjJfgaWKCjvZMWiKT0nP2fSOnVGWXSmbgtEH47Au2Z3+lX2pzfS7RC6eJX3sQ78WsvUXMnagNFa+sJbZ5q7SmJAYDPBKtHkdLJ/inr0xzaZfstsjGtzz8EmNtBaqaCa6bcH79niVRjOiG5Squ9lSdL8gr4MVj6H6V/Z55HefSm03rhRusqwxsTEYbRvb7JzZ6Vfem9RIqyBwOxiSQal6RDdJw5fJc6aTWMjWX8jYgdJM8a2ZB0pjjtxgMPDlGnS/4A6a4pSJM7Ww2QShd0c3Xczpiq4jV4yuJDj9GT7A+/ZISmMwGFRaHUuiwrNgLSnAsRMaqLcr+txy8XbJbRbT3ZtE5YcwzKH4lvMZOJ/injAUKa2ZXtY92MGQcKSqpzuSeCFbfyFjn+dKIxKJdu3atXz58hUrVhw8eFChUJhXr6Z0ZGTk2rVrly9fjkAgJBKJ6fgEiXmmNBZIh3X6fq68sJMdfLffEYnbGo4xVWGbgtHHElt9SnoSG2mVBLiBxXxkkcV9xtwF75uF0hgMBrl6mCYcaqOLq3q4yBZGeA3Jp7jHKRN3OKHlx7D75JusYJxl9Vhiq0t2182y3hg0Ja+DVdvHx7OkLIlKpdU9reEeY1rc/OBCtv5Cxj7Plebbb7/94IMPmpqa0Gj022+/vXPnTnOnN6X9/f2vjf4BpTFxYp7Q6w0cqQpDEqQ00X2Ke44mtmwMRpvXej+GYexT2q4WEWLQ8DAkLFVE4iskSu2YXT4L5H0zGAzaEb1EqWVJVL2D8laaCNXLK+xkpzRSzoTl+5URvQoJ5zNwh+Kx5hGkidWNweg9d5pOpbZfzsPfruiLq7+vJUyx8gkP4jB3hmmmF4j1x2RpIWOfz0rT09ODQCBaWlqMVi8tLf3Nb37DZrPHdAIIglAoFFCa8cixOK4e1tGEQw0kYU47/AW4Wy7+UHzLpgflB54dJ6R+f2yzIxLnXdwTXkNCYhml+MEa4mBgcl4vW8KTqZXakVn769sEeUSnl6uHuTI1RTBEYMtaaaK6fn5592BeByu1mR6DpoRUD9woI3oWdF/I6jyV2n4oHrszqnFzSL1JNswTpo/kN/2qJR753UFV/clNtJIuThNZ2M+VCxQand5gKsB8Sizk2nYhY5/PShMTE/PCCy+Y3tKRkZFFixbl5OSYjlgkJlUajUYj+/WPyWQiEAihUDg8pT+lUpmXl6dUKqd09Sy9SKXW0AXyZjK/tJOV0kgJrur7OR9/JrVt753GjUF1GwLvbd8F1H7qVfhdQK3xyMagup2RDYfjsadT25wzO9xzu7yLuv3KiCF3++7UkZIbKFkt9Px2Rmknq6KbjSIO1vdzm0j8NqqgiyHqYYn7OJLxtl62hMiWEFhiAkvczRThGaIuhqiTLuqgCVsoAnQft6KbXdDBzMDSEjGUyJqBwMre6yU9nvl450zcqZS2w/HYXVGN34fCE6hYs20JQe+Kajwcjz2V0uacifPMx98o7Qmu6oupIyGbacU4Vm3vYBtVQGAIEjPyhFK5VqudpYacyWLNS8+3krCFjH14eHia8IVCIQKBkMlkFvW2cRcx5tEnc9Db2/vdd981f9b//d//hYWFmR8xT0+qNB4eHogH/1JTU/PAnxUM5OTmJWfmRaTm+Sfl+cbne8Tku0TlnwnLPx6cbxtQ8JNfwZYbBRt8C772Kfj8auGnXk9z++xK4VfecGG+v1Gww69gr3/BoaACu5D8s+H5zpH5btH5V2LzfePz/ZPyQlPyotLyEjLy0rLysnOsYAFkAQwABqbKQGpq6lNTmgsXLjxY89/fIxKJj11pQExj5W+3ibNN+tNGo9HKhtRcyRBdIO/jSDrpohaKoHGAh+7j3u3hlOPZxThWXhsjs4We2kRNaRxvo6Q0UlObqGlNVGQzDdlMy8TSMlvoWS307FY4SKroZqP7uC0UQTdTROJKWSKFSK4cUmlmOtSYFP7E7M31swsZ/kLGPrdjGj6fTxznT6vVPvbWM/MAaH6PPTNH+tjToLXaYuzZY2d4Nt9wIVt/IWOfz/00xhEBra2txhevvLwcjAiYDXUQeN+A0gwPD88GV3zCZQCePx3Pn/jH/dPsp4Eg6Ntvv121alVzc3N9ff0777xjGuXMYrHee++95uZmo6sNDg52dHRER0cjEIi6urqOjg6RSDSxF04Me+Jrpy/vk95/NmcA79t03rfZbFlryraQrb+QsU+/0pu4yn3KSiMSiXbu3Pncc889//zzBw4cMH25SaVSEQgECoUyvhsPd/XHxcVN/NpIpVIEAsFkMn8djPZo/wuFwtTUVKFQ+GiXzYvcCxm7TCYD8IHnz4v3+JFBTNPzjcN9pVLpmDXzU1aaMcv0WA4aYd8fgQBSgAHAAGAAMDDDDDCZzDEr8HmrNHq9nslkSqXSR1b20QuMQjXlkGhqD50lVy1k7DKZDMCfTmPALPHhqRUDmH46ppdKpUwmU68fex7Yeas0Y+qq9QcnbnO0/j5zMedCxg5BEIA/wVcRc9GfrS8zMP3MmR4ozdh+uJB9biFjB0qzkK2/kLHPtOcDpQFKY8kAeN9m7pedJdezb38hW38hYwdK83TeRY1G4+Hh8cu/T+fxT/WpCxk7BEEAPvD8p/r+PbWHz6jng5jmqdkVPBgwABgADCwQBoDSLBBDA5iAAcAAYOCpMQCU5qlRDx4MGAAMAAYWCANAaRaIoQFMwABgADDw1BgASvPUqAcPBgwABgADC4QBoDRQSEjI66+/vnTp0tWrV5vm9LQwf0ZGxnvvvbd06dL333+/uLjY4uzc3Z0Ue1RU1KeffvrC6N+XX345Hj9zlIFJ4ZtwpaWlIRCIzZs3m47M9YQ12CUSiZ2d3csvv7xkyZJ33nlnQXk+BEH+/v7vvvvusmXL/vjHP549e1atVs91o0MQVFtba2Nj88orryAQiNzc3PEQoVCoVatWLVmy5K233pp0ksnxbmJ+fKErTXp6+pIlS2JjYwkEwpEjR1544QUej2dOEARBGAxm0aJFN27c6OnpcXNzW7x4MR6Pt8gzF3etwb5r167Q0NCOjg4ikbh///4VK1awWKy5CPbhMlsD33gVlUp99dVX16xZM2+UxhrsWq32ww8//O677+rr66lUak1NDQ6He5jGuXjEGvgpKSlLly5NSUmhUqnl5eWvvPKKg4PDXARrUeaSkpJLly7l5ORMoDQUCuW3v/36wBqiAAAKVUlEQVSto6NjT09PcHDwokWLysrKLO7zqLsLXWlWr15tb29vZE2v1//hD3+4du2aBYnbt2/fsGGD6eBHH3107Ngx0+7cTViD3RydTqdbvnx5QkKC+cG5m7YSvk6n+/jjj+/cuWNraztvlMYa7OHh4W+++ea8XKjGGvj29vZffPGFyb0dHR0/+eQT0+48SEygNM7OzitXrjRh3LFjx7p160y7U0ssaKXRarWLFi0yDyH37du3adMmCypfe+01f39/08HLly//7W9/M+3O0YSV2M3RyeXyZcuWFRYWmh+co2nr4V++fHnLli0QBM0bpbES+/r163fv3n3kyJEXX3xx5cqV3t7eOp1ujprbvNhWwk9JSVmxYoWxuZhMJv/5z3/29vY2v89cT0+gNGvWrDlz5owJYGxs7PPPP2/anVpiQSsNm81GIBANDQ0m7pycnFavXm3aNSYWL16cmppqOhgaGvriiy+adudowkrs5uhOnDjx5ptvzo/Waivho9HoV199VSAQzCelsRK7sWPy4MGDra2t6enpv//97z09Pc39YY6mrYQPQVBgYODixYufeeYZBAJx/PjxOYp3vGJPoDTvvPOOj4+P6cLi4mIEAqFSqUxHppAASgOU5p7bjKmyJpe6du3a7373u87OTtOROZ2wprqRy+VvvPFGSUmJEem8iWmswQ5B0DvvvPPaa6+Z4hg/P7+XX355ThvdWHgr4aNQqJdeeik6OrqrqysnJ+e1117z8vKaB/BNEIDSmKiY8YSVcTRoPbt58+aKFStaWlpm3CRP6gHWmL6jowOBQCz69e83o3+LFi0ikUhPqpgz8hxrsEMQ9Nlnn3355ZemEpSUlCAQCK1WazoyRxNWwv/000/Pnz9vwpiUlPTss8+Ot/iKKdscSkygNKD17PHbcfXq1SdPnjTeV6/Xv/rqq2OOCLCxsTE9+z//+c+8GREwKXYIgq5fv/788883NjaaGJgfiUlNr1ar8WZ/mzdv/uKLL/B4/DyobSfFDkGQq6vr66+/bqpbAwICXnnllQViegiC/vGPfzg7O5vwpqamPvvss6YIz3R87iYmUBpnZ+f333/fBG3nzp1gRICJjSkm0tPTly5dGh8f39PTc/To0RdeeIHL5UIQtHfvXhcXF+NNMRjMM888c+vWLSKR6OHhMZ9GOU+K3dfXd8mSJVlZWYO//ikUiilyPcsus8b05kWeN61nEARZg53BYCxfvvzkyZN9fX1FRUUvvvji1atXzQmZu2lr4Ht4eCxfvjwtLY1CoVRUVLz11lvbt2+fu5BNJVcoFB2jfwgE4vbt2x0dHXQ6/ZcpzF1cXPbu3WvMZhzl7OTkRCQSQ0NDwShnE3vTSgQHB//pT39asmTJ6tWrm5qajPdau3atra2t6b4ZGRnvvvvukiVLVq5cOZ++X5sU++uvv26x7riHh4eJlrmemBS+OcD5pDQQBFmDvaGh4aOPPlq6dOmbb745b8aeGW06KfyRkRFPT8+33npr2bJlr732mp2dnUQiMfeHOZpGoVAWb7SxorO1tV27dq0JFAqF+vvf/75kyZI333wTfLlpogUkAAOAAcAAYGD2MrCgx57NXrOAkgEGAAOAgXnEAFCaeWRMAAUwABgADMxKBoDSzEqzgEIBBgADgIF5xABQmnlkTAAFMAAYAAzMSgaA0sxKs4BCAQYAA4CBecQAUJp5ZEwABTAAGAAMzEoGgNLMSrOAQgEGAAOAgXnEAFCaeWRMAAUwABgADMxKBoDSzEqzgELNIwbu3Lnz9ddfTwxogkmoJr5wvLPGT8GNn7WXlpZ+8MEHphnMxrsEHAcMzBwDQGlmjltwZ8AApFarX3nllfr6+om5mFGlgSDoww8/TExMnLgM4CxgYOYYAEozc9yCOwMGoKSkpPfee29SIqapNA9PL20e00AQFBIS8uGHH05aDJABMDBDDAClmSFiwW3nMwN8Pv+ll14yLfeLwWAWL15cVVX1MOYNGzaYL3MCQVBMTMxf/vKXJUuWvPzyy/b29sZLEAhEdHT0li1bnn322bfffjs/P990q5qamn/961/G/BcuXBgZGTGeWrt2rb29/ZkzZ/7nf/7n888/hyCouLj4nXfeWbZs2eeffx4XF4dAIEyTQtLpdAQCMddX1jFxAhJzjgGgNHPOZKDAs4KB4uLixYsXt7S0yOXyN99808HBYcxirVixIj093XQqLCxs2bJlAQEBfX19WCzW39/feAqBQPzxj39MTU0dGBg4ffr0c889JxKJIAhisVi//e1v7ezsiERibm7u//7v/5rm0l67du1zzz3n5OTUO/rHYDCWLl3q6OjY29ubnJz80ksvmSsNBEEvvfTSY5mU14QFJAAD1jMAlMZ6rkBOwMADDNjZ2b377ru7du3661//qtFoHjg3uiORSBAIRF1dnenUH/7wh0uXLpl2TQkEAuHm5mbcHRoaQiAQpaWlEARdvHjxvffeMxgMxlOhoaHPPfecsW9/7dq1q1atMt3B1dX1L3/5i2n3woULFkqzatUqT09PUwaQAAw8SQaA0jxJtsGz5hUDKpXql4VbFi9e3NXVNSYwDoeDQCCwWKzxLI/HQyAQ1dXVD2dGIBAZGRmm488//3xCQgIEQd9///3+/ftNx3E4HAKBMC5dtXbt2sOHD5tObdmy5cCBA6bdvLw8C6X5+OOPzReRNOUECcDAE2AAKM0TIBk8Yn4ygMfjly1btmjRooKCgjERarXa3/zmN+Xl5cazcrl8AqXJzc013WTFihXGlq6JlebMmTOmSyZVmj//+c83b9405QcJwMCTZAAozZNkGzxr/jCg1Wo/+OADW1tbHx+fF198kcfjjYlt5cqVps4YCILeeOON8VrPxlSah1vPli9fbmo9M1caV1fXlStXmsrg4uJiHtOo1erxxiyYLgEJwMDMMQCUZua4BXeezwycP3/+jTfekMlker3+008/3bBhw5hoHR0df/zxR9Op+Pj4ZcuWBQYG9vf3t7W1BQUFGU9ZjHI2xTTGEQH29vZEIjEvL89iRIC50tDp9CVLlpw/f763tzclJeXll182VxoUCvXL8AGlUmkqCUgABp4kA0BpniTb4FnzhAEUCvXMM8+g0WgjHiqV+vzzz4eFhT0Mj0AgPPvss1Kp1HQqIiLivffeW7x48SuvvHLq1Cnj8fGUBoKgCUY5mysNBEGFhYVvv/320qVL16xZExsba640R48ePXbsmKkMIAEYeMIMAKV5woSDxy04BrZu3erj4/MUYQsEgt///vcUCuUplgE8eoEzAJRmgTsAgD/jDFCpVFMr2Yw/bKwHtLS0mH/TM1YWcAwwMLMMAKWZWX7B3QEDgAHAAGAAKA3wAcAAYAAwABiYWQaA0swsv+DugAHAAGAAMACUBvgAYAAwABgADMwsA0BpZpZfcHfAAGAAMAAYAEoDfAAwABgADAAGZpYBoDQzyy+4O2AAMAAYAAwApQE+ABgADAAGAAMzywBQmpnlF9wdMAAYAAwABoDSAB8ADAAGAAOAgZll4P8D7ihqpBQw71EAAAAASUVORK5CYII=;" vertex="1" parent="1">
          <mxGeometry x="40" y="330" width="333.2" height="120" as="geometry" />
        </mxCell>
        <mxCell id="X61n1Rkwuy26WRs1GRfb-3" value="" style="endArrow=classic;html=1;rounded=0;" edge="1" parent="1">
          <mxGeometry width="50" height="50" relative="1" as="geometry">
            <mxPoint x="390" y="380" as="sourcePoint" />
            <mxPoint x="480" y="380" as="targetPoint" />
          </mxGeometry>
        </mxCell>
        <mxCell id="X61n1Rkwuy26WRs1GRfb-4" value="" style="shape=image;verticalLabelPosition=bottom;labelBackgroundColor=default;verticalAlign=top;aspect=fixed;imageAspect=0;image=data:image/png,iVBORw0KGgoAAAANSUhEUgAAAk4AAAGGCAIAAAACaJnmAAAAAXNSR0IArs4c6QAAIABJREFUeAHsnXtADen/x6fSnXK3aSm2VFQICavcC7nfdpc2l7UuS/Ftpazd1hLrmlssSdblCEkuuV8jISvWym0JLYVQq6ijmt9+d34739nzPHUyZup0vOcPnvmcuT2v5zOf15k5czoMiwkEQAAEQAAEtJoAo9W9Q+dAAARAAARAgIXqkAQgAAIgAAJaTgCq0/IBRvdAAARAAASgOuQACIAACICAlhOA6rR8gNE9EAABEAABqA45AAIgAAIgoOUEoDotH2B0DwRAAARAAKpDDoAACIAACGg5AahOywcY3QMBEAABEIDqkAMSE1i2bBnDMM2aNSO3yzBMSEgIGRdGoqOjmzZtamRkxDBMSkqK8CWyHRUVxTBMWloa95Kvr6+VlRW5GBcpLi7eunXrxx9/XKdOHUNDQ0tLyx49ekRERHCvpqWlMQyzcOHCklYv5/ilS5fc3d3NzMwYhgkLCyvnvbMsywE5ceJE+e+6LHt8+fKlv7+/hYWFoaFh8+bNt27dKlzL19eX+fdkZ2cnXEBtuyy5ym3k4cOHISEhKrkaEhJSSiqq3TsWkJwAVCc50vd9g82bN+eKzLlz51RYJCUlpaenqwSFs0+ePNHX1+/Tp8/JkyeTkpLy8vKEr5LtJ0+eJCUl5efncy+Vrrrp06czDDN27Njdu3cfP348KirKx8fH29ubW1fTVNeiRQtbW9v9+/cnJSVlZGSQfZc7ouGq6969e/Xq1X/66afjx49/8cUXDMNs2bKFZ+Lr62tsbJwkmC5fvsy/WpZG2VWXnJzMMExUVJRws1CdkIYmtKE6TRgF7TkG7rTv3bs3J5Wyd+zVq1fFxcVnzpxhGGbbtm1lX1G4ZCmqe/XqlaGh4eeffy5cnmXZoqIiLqJpqqtSpcqECRNUjpaf5XDxs3I0NFl18fHxDMMoFAq+4927d69fv35hYSEX8fX1NTU15V8V0YDqREDT5FWgOk0encp3bOPHj2cY5urVq+3bt69WrZrKZZmwfHD3Hg8dOjRq1KjatWszDDNs2DDhPScPDw+u/7t373ZzczM2Nq5atWq3bt3Onj3Lcyn7DcynT58yDDN9+nR+XZUGr7rFixdbW1ubmpq6ubklJSXxiyUnJw8bNszKysrIyMjKyuqTTz65d+8e/yp3JIcPHx45cmSNGjVMTEy8vb3v3LnDL8Cy7JEjR7p06VKtWjVjY+P27dsfPXpU+Crf5jYlRMGyLInr9evXRUVF8+fPt7OzMzAwqFOnjo+Pj/Ci2cPDo1mzZmfPnm3Xrh13zOvXr2dZdt++fS1btjQ2NnZ0dDxw4AC/X5WGiuru3LkzbNgwCwsLAwODunXrdunShb9lZ2Vl1bt379jYWCcnJ0NDw0aNGi1btky4tZycnICAAGtra319/fr16/v7++fm5vILFBUVLV++vHnz5kZGRubm5m3btt29ezf/KrXxxRdfVK1a9c2bN/yrCoWCYZjExEQu8raqy8nJ+eKLL2rWrGlqaurp6Xnz5k1hrt6+fXvkyJE2NjbGxsb169f39vb+9ddfuR2dOHFCOFL8Wriq44dGQxpQnYYMhDYcxqtXr8zNzdu0acOy7Lp16xiG2bBhg7BjfCHga7elpeWXX3554MCBmJiY33//PTw8nGGYuXPnJiUlXbt2jWXZLVu2MAzTo0ePuLi4bdu2tWrVysDA4PTp09xmy646lmVtbGyqVau2ePHi69evFxcXCw+M/2jK2tray8sr7u/JycmpRo0a2dnZ3JI7duz47rvvdu3aderUqejoaA8Pjzp16jx9+lR4JA0aNBg9evSBAwfWrl1bt27dBg0avHjxgltg06ZNOjo6/fv3j42N3bt3r7e3t56eHtV23F1ZhmEGDx7M3YGj4iosLPzyyy8Zhpk0adLBgwd/+umnOnXqNGjQgD8kDw+PWrVq2dnZRUZGHjp0yNvbm2GYWbNmOTk5bd26df/+/W5uboaGhn991KSCgjprZ2dnY2OzadOmU6dO7dy5MyAggP8Yz8rKytLSsmHDhuvXr9+/f//w4cOFn3rm5eW1aNGidu3aS5YsOXr06LJly8zNzbt06cIPgY+Pj46OzhdffLF79+4DBw6EhoaqmJI8Hjc3Ny7N+Jd+++03hmHWrFnDRXx9fXV1devVq6erq2tpafnVV189e/aMX1ilUVxc3LlzZ0NDw9DQ0MOHD4eEhDRu3FiYq6dOnQoICIiJiTl16tSuXbv69+9vbGx848YNlmVzcnK4JJw5cyY3WMJ3Gyo7wmwFEoDqKhC+tu1648aNDMP89NNPLMu+fPmyatWqHTt2FHZSWD64AqFyR5F7j7xjxw5uraKiovr16zs5OfG3GV++fFm3bt327dtzC7yV6i5cuNCwYUPuPXi1atW8vb03btzIF1zuIsbJyYm/CXbhwgWGYVSed+D2W1hYmJuba2pqyhdl7kgGDBjA9zcxMZFhmDlz5rAsm5eXV7NmzT59+vCvFhUVNW/e3NXVlY+oNBiG+eqrr/ggiev69esMw0ycOJFf5vz58wzDzJgxg4t4eHgwDHPx4kVu9tmzZ3p6esbGxrzbLl++zDDM8uXL+S2U1MjKymIYZunSpdQFrKys/rK48MOw7t27m5mZcdf08+bN09XVTU5O5teNiYlhGGb//v0syyYkJDAM88033/CvlqVha2vr6ekpXPLRo0fcmyQuuOTv6fDf0zfffGNiYmJvb//y5UvhKnz7wIEDDMPwQ8mybGhoqDBX+SVZli0sLFQqlba2tlOnTuXi1M/qhKugrQkEoDpNGAUtOQYPDw9jY2P+MmjUqFEMw9y6dYvvnrB8cLVb5VaViupSU1MZhlmwYAG/BZZlJ0yYoKury5XRt1Idy7JKpfLgwYMzZszo0aOHsbHxXybw9vbmbMepLigoiN9Xfn4+wzA//vgjF3n58mVgYOBHH32kp6fH37MaP3489yp3JDExMfzqf12KWVlZde3albt1yTBMTEzMG8E0ffp0HR0d4a084bpU1QlxrVq1imGYCxcuCNdycHBo27YtF/Hw8LCwsBC+amFh0a5dOz5SUFDAMExAQAAfKalRXFz80UcfWVpaLl68+NKlS/w7D255KysrR0dH4bocDe7iu0OHDs7OzoJ+v3n58qWOjk5gYCDLssHBwQzDPHr0SLi62ratra2Xl5dwMU518+bNEwb5NifXJUuW8BFhIzAw8K+L46ysLD7IJQP/tPCbN29CQ0MdHBz09fX5oecPAKrjuWlyA6rT5NGpTMd2+/ZtHR2dwYMHv/hn4p4dEMqDVJ1KpVZR3enTpxmG2bRpkxDE7NmzGYb5448/+Nt6ZfyygXAjLMtmZWV16tSJYZj4+Hj+BqbKlw2EB9ynTx8TE5N58+YdPXr0woULycnJderU8fX15TbLFfczZ84I99K2bdsWLVr8de908+bNfIlUaTx48EC4Ct+mqk6Ii+Ogcrusa9euNjY23Ea4z+r4DXLq7d27tzCishfhSyrte/fujR49ul69en9dCNasWXPy5Ml//vknt4yVlVW3bt2Ey3PXSXFxcdx9Y5Uuc7OjR49mWfaLL77Q09Pjr62FGymlrfYGpsq6RUVFpqamQ4cOVYlzs2PGjKlSpYrwpdevXwuHfvLkybq6usHBwQcPHjx//nxycnLz5s35z5KhOiE6jW1DdRo7NJXswLi352RRs7Cw4G8JCssH5wbhfS2WZVVUJ/lVnQrTuLg4hmHmz5+vVnXZ2dk6Ojrff/89v4X8/Hw9PT0V1ZV0VXfw4EGGYVasWJFMTAUFBfw2hQ0VCZG4Srqqc3Nz47Yjrer4Y7t58+bs2bP19PTGjRvHBUu/qnNzc3NyciL6ncy9QRF3VTd27FiVx1K2bt0qfCyFP1quUVRUZGJi8sknn6jEuVm1V3U1atQYOXKkcF1LS0uoTghE89tQneaPUSU4wsLCwvr163/00Ucn/j0FBAQwDLN3716uD2+ruqKiIktLyxYtWvDv+nNzc+vWrduhQwdug5wAynJVp1QqhXeouNXnzZvHXzVy96xKuqrLyclhGEZ4f2zlypV/fXtdRXXkZ3WzZ8/mPrmsXr16KV8eIMdYrepu3LjBMIyfnx+/LvfhIv+5l0yq43bXokUL/sEQ6md1/PO3c+bMMTExuXv3Ln+cwgb3Wd23334rDKpt79+/n2GY6OhofkkvLy/hlw34ONfYtm1bKZ81qv2srmbNmrzXuUdYGYbhVffrr78yDLNq1SqVnWJWowhAdRo1HJX1YPbu3ctfHgn78PTpU0NDw/79+3PBt1Ud/wRmr169du/evX379jZt2oh7AvPp06empqZ/PTK+efPmU6dOxcfHT5s2zcDAwMHBgfvYr3TVsSzr7u5es2bNiIiII0eOzJw508LConr16iqqa9CgwZgxYw4ePBgREVG3bl1LS0v+wb9Nmzbp6uoOGzZsx44dp06diomJ+fbbb/mP+oTQeFbkYykqF8Fffvmljo7OlClTDh06tGbNGu6ZT97oEqruypUrHTt2XL58+YEDB44dO/bNN9/o6uryz78In8A8cOAA9wQmd63Msmxubm7Lli0//PDDxYsXHzly5NChQxEREUOGDOH/wgD3BOaXX365Z8+eQ4cO/fjjj2V5UqZ79+41atRYu3bt8ePHx44dyzDM5s2bOXT37t1r37798uXL9+/ff+DAgaCgICMjo2bNmgk/FtXT0+vSpQu3fFFRkbu7u6Gh4dy5c6lPYH7++eeGhoZhYWHHjh1bsGBBnTp1PvzwQ151eXl5xsbGHTp0OHHiRHJyMv/UDzmmiFQgAaiuAuFrz6779+9vYGDw5MkTskuffPJJlSpVMjMzWZYVoTqWZePi4tq2bWtkZGRqatq1a1f+u1Nv9VldQUHBokWLevbs2bBhQ0NDQyMjIwcHh8DAQF5FalX3xx9/DBo0qEaNGtWqVfPy8vrtt9+srKxUVHf48GEfH5/q1asbGxv36tXr9u3bQiCnTp3q3bt3zZo19fX1LS0te/fuzT9rKlyMa6u9quO+/z5//vwmTZro6+vXrl17xIgRwo/uJFTd48ePR44caW9vb2pqWrVqVWdn57CwMP6+NPe9upiYmGbNmhkYGFhbW6s8AJKbmztz5kzu+3/m5uZOTk5Tp07lUoLrRVhYmKOjo4GBgbm5ebt27fjbACQWPvLy5Us/P78PPvjAwMDA2dlZ+KDs8+fPBwwYYG1tbWxsbGBgYGtrGxgYyD8txePlXcWybHZ29ujRo6tXr25iYtK9e3fuipl/LOXFixdjxoypW7euiYnJxx9/fPr0aY+/J/5gtm7dam9vzz20wq/Fv4qGJhCA6jRhFHAMlZ4A+Vlape9SmTvAqa7Mi2NBEKgAAlBdBUDHLrWPAFSnfWOKHmkTAahOm0YTfakwAlCdtOiLioqEX8UTtqXdEbb2nhCA6t6TgUY3QaAyEQgJCSG/uMJF+AduK1N/cKwVTQCqq+gRwP5BAAQIAg8fPiS/isdFSvomIrENBEDgfwSguv+xQAsEQAAEQEArCUB1Wjms6BQIgAAIgMD/CGit6oqKitLT07Ozs3MwgQAIgAAIaDWB7Ozs9PR0lT9E/j/RsazWqi49Pb2kj7URBwEQAAEQ0D4Cwj+hIPTcf/9+hcq81sxmZ2czDJOeni76rUxWVpZCocjKyhK9Be1bEUyoYwosJBYwIZnk5OQAC4lFEibctY3K38QR6kxrVcf9fd6cnBxhb9+qrVQq4+LilErlW62l3QuDCXV8gYXEAiYkE+4XE1FVVMhIkipqCz5Up4L9f7OSDMD/NqcVLTChDiOwkFjAhGQC1cnHBKrDVR01u0QGUb+o4ICFxAImJBOoTj4mUB1UR80ukUHULyo4YCGxgAnJBKqTjwlUB9VRs0tkEPWLCg5YSCxgQjKB6uRjAtVBddTsEhlE/aKCAxYSC5iQTKA6+ZhAdVAdNbtEBlG/qOCAhcQCJiQTqE4+JlAdVEfNLpFB1C8qOGAhsYAJyQSqk48JVAfVUbNLZBD1iwoOWEgsYEIygerkYwLVQXXU7BIZRP2iggMWEguYkEygOvmYQHVQHTW7RAZRv6jggIXEAiYkE6hOPiZQHVRHzS6RQdQvKjhgIbGACckEqpOPCVQH1VGzS2QQ9YsKDlhILGBCMoHq5GMC1UF11OwSGUT9ooIDFhILmJBMoDr5mEB1UB01u0QGUb+o4ICFxAImJBOoTj4mUB1UR80ukUHULyo4YCGxgAnJBKqTjwlUB9VRs0tkEPWLCg5YSCxgQjKB6uRjAtVBddTsEhlE/aKCAxYSC5iQTKA6+ZhAdVAdNbtEBlG/qOCAhcQCJiQTqE4+JlAdVEfNLpFB1C8qOGAhsYAJyQSqk48JVAfVUbNLZBD1iwoOWEgsYEIygerkY1I5VBceHm5tbW1oaOji4pKQkEDiOH36dPv27WvWrGlkZGRnZ7dkyRJyGZWI2p6rLE/O4lwFE5IANYJUIbGACckEqpOPidqCz1D3XZ7B6OhofX39iIiI1NRUf39/U1PT+/fvqxzApUuXFArFb7/9lpaWtmnTJhMTkzVr1qgsozKrtucqy5OzOFfBhCRAjSBVSCxgQjKB6uRjorbgV7zqXF1dx48fzyOwt7cPCgriZ6mNAQMGjBgxgvoSH1Tbc37Jkho4V0kyYEIyQf0CEyoBahBnEIlFEiZqC34Fq66goEBPTy82Npbvv5+fn7u7Oz9LNi5dulSvXr2IiAjypfz8/Jx/pvT0dIZhsrKylGKnvLy8uLi4vLw8sRvQwvXAhDqowEJiAROSiVKpBBYSiyRMsrKyGIbJySnx4YwKVt3Dhw8ZhklMTOS9FRoa2qRJE35W2LC0tDQwMNDV1f3hhx+Ecb4dEhLC/HtSKBRxmEAABEAABLSagEKhqASqO3v2LK+rOXPm2NnZ8bPCxt27d3/99de1a9fWrFlToVAIX+LauKoj3zFJG5Hk/Ze0h6QJWwMWchTAhGSCqzr5mGj6VZ2IG5gsy86ePbukKz/ef2pv3fJLltSQ5A5ySRuvpHEwoQ4csJBYwIRkgo915WOituBX8A1MlmVdXV0nTJjAI3BwcFD7WMoPP/xgZWXFr0JtqO05dS1hEOeqkAbXBhOSCeoXmFAJUIM4g0gskjBRW/ArXnXclw0iIyNTU1OnTJliamp67949lmWDgoJ8fHw4LitXrtyzZ8+tv6f169ebmZl98803JDJhRG3PhQtT25IMAHXLlTcIJtSxAxYSC5iQTPCuSD4magt+xauOZdnw8HArKysDAwMXF5dTp05xOHx9fT08PLj28uXLmzVrZmJiYmZm1rJly1WrVhUVFVGp8UG1PeeXLKmBc5UkAyYkE9QvMKESoAZxBpFYJGGituBrhOrIzr97RG3P1e5CkgFQu5fKtQCYUMcLWEgsYEIywbsi+ZioLfhQHRX+f4M4V0k0YEIyQaqACZUANYgziMQiCROorsRvFJLEVSKSDIDKNiv7LJhQRxBYSCxgQjLBuyL5mEB1UB01u0QGUb+o4ICFxAImJBOoTj4mUB1UR80ukUHULyo4YCGxgAnJBKqTjwlUB9VRs0tkEPWLCg5YSCxgQjKB6uRjAtVBddTsEhlE/aKCAxYSC5iQTKA6+ZhAdVAdNbtEBlG/qOCAhcQCJiQTqE4+JlAdVEfNLpFB1C8qOGAhsYAJyQSqk48JVAfVUbNLZBD1iwoOWEgsYEIygerkYwLVQXXU7BIZRP2iggMWEguYkEygOvmYQHVQHTW7RAZRv6jggIXEAiYkE6hOPiZQHVRHzS6RQdQvKjhgIbGACckEqpOPCVQH1VGzS2QQ9YsKDlhILGBCMoHq5GMC1UF11OwSGUT9ooIDFhILmJBMoDr5mEB1UB01u0QGUb+o4ICFxAImJBOoTj4mUB1UR80ukUHULyo4YCGxgAnJBKqTjwlUB9VRs0tkEPWLCg5YSCxgQjKB6uRjAtVBddTsEhlE/aKCAxYSC5iQTKA6+ZhAdVAdNbtEBlG/qOCAhcQCJiQTqE4+JlAdVEfNLpFB1C8qOGAhsYAJyQSqk48JVAfVUbNLZBD1iwoOWEgsYEIygerkYwLVQXXU7BIZRP2iggMWEguYkEygOvmYQHVQHTW7RAZRv6jggIXEAiYkE6hOPiZQHVRHzS6RQdQvKjhgIbGACckEqpOPCVQH1VGzS2QQ9YsKDlhILGBCMoHq5GMC1UF11OwSGUT9ooIDFhILmJBMoDr5mEB1UB01u0QGUb+o4ICFxAImJBOoTj4mUB1UR80ukUHULyo4YCGxgAnJBKqTjwlUB9VRs0tkEPWLCg5YSCxgQjKB6uRjAtVBddTsEhlE/aKCAxYSC5iQTKA6+ZhAdVAdNbtEBlG/qOCAhcQCJiQTqE4+JlAdVEfNLpFB1C8qOGAhsYAJyQSqk48JVAfVUbNLZBD1iwoOWEgsYEIygerkYwLVQXXU7BIZRP2iggMWEguYkEygOvmYQHVQHTW7RAZRv6jggIXEAiYkE6hOPiaVQ3Xh4eHW1taGhoYuLi4JCQkkjp07d3br1q127drVqlVzc3M7ePAguYxKRG3PVZYnZ3GugglJgBpBqpBYwIRkAtXJx0RtwWeo+y7PYHR0tL6+fkRERGpqqr+/v6mp6f3791UOwN/ff/78+RcuXLh161ZwcLC+vv6lS5dUllGZVdtzleXJWZyrYEISoEaQKiQWMCGZQHXyMVFb8Cteda6uruPHj+cR2NvbBwUF8bPURtOmTWfNmkV9iQ+q7Tm/ZEkNnKskGTAhmaB+gQmVADWIM4jEIgkTtQW/glVXUFCgp6cXGxvL99/Pz8/d3Z2fJRtFRUUNGjRYsWIF+VJ+fn7OP1N6ejrDMFlZWUqxU15eXlxcXF5entgNaOF6YEIdVGAhsYAJyUSpVAILiUUSJllZWQzD5OSU+HBGBavu4cOHDMMkJiby3goNDW3SpAk/SzYWLFhQs2bNx48fky+FhIQw/54UCkUcJhAAARAAAa0moFAoKoHqzp49y3trzpw5dnZ2/KxKQ6FQmJiYHDlyRCXOzeKqjnzHJG1Ekvdf0h6SJmwNWMhRABOSCa7q5GOi6Vd1b3UDMzo62tjYeN++fVTPqQTV3rpVWZ6cleQOMrnZSh0BE+rwAQuJBUxIJvhYVz4magt+Bd/AZFnW1dV1woQJPAIHBwfqYykKhcLIyGjXrl38kqU31Pa89NWRlFQ+qF/AQiVABpEqJBNUFfmYqC34Fa867ssGkZGRqampU6ZMMTU1vXfvHsuyQUFBPj4+HBqFQlGlSpXw8PCMf6bs7GwqNT6otuf8kiU1cK6SZMCEZIL6BSZUAtQgziASiyRM1Bb8ilcdy7Lh4eFWVlYGBgYuLi6nTp3iWPj6+np4eHBtDw+Pfz9uwvj6+pLIhBG1PRcuTG1LMgDULVfeIJhQxw5YSCxgQjLBuyL5mKgt+BqhOmr/3zGotudqt49zlUQEJiQT1C8woRKgBnEGkVgkYaK24EN1JPn/j0gyACVuvXK+ACbUcQMWEguYkEzwrkg+JlBdid8opEIXBnGuCmlwbTAhmaB+gQmVADWIM4jEIgkTqA6qI1NLfESSpBS/e01dE1jIkQETkgneFcnHBKqD6qjZJTKI+kUFBywkFjAhmUB18jGB6qA6anaJDKJ+UcEBC4kFTEgmUJ18TKA6qI6aXSKDqF9UcMBCYgETkglUJx8TqA6qo2aXyCDqFxUcsJBYwIRkAtXJxwSqg+qo2SUyiPpFBQcsJBYwIZlAdfIxgeqgOmp2iQyiflHBAQuJBUxIJlCdfEygOqiOml0ig6hfVHDAQmIBE5IJVCcfE6gOqqNml8gg6hcVHLCQWMCEZALVyccEqoPqqNklMoj6RQUHLCQWMCGZQHXyMYHqoDpqdokMon5RwQELiQVMSCZQnXxMoDqojppdIoOoX1RwwEJiAROSCVQnHxOoDqqjZpfIIOoXFRywkFjAhGQC1cnHBKqD6qjZJTKI+kUFBywkFjAhmUB18jGB6qA6anaJDKJ+UcEBC4kFTEgmUJ18TKA6qI6aXSKDqF9UcMBCYgETkglUJx8TqA6qo2aXyCDqFxUcsJBYwIRkAtXJxwSqg+qo2SUyiPpFBQcsJBYwIZlAdfIxgeqgOmp2iQyiflHBAQuJBUxIJlCdfEygOqiOml0ig6hfVHDAQmIBE5IJVCcfE6gOqqNml8gg6hcVHLCQWMCEZALVyccEqoPqqNklMoj6RQUHLCQWMCGZQHXyMYHqoDpqdokMon5RwQELiQVMSCZQnXxMoDqojppdIoOoX1RwwEJiAROSCVQnHxOoDqqjZpfIIOoXFRywkFjAhGQC1cnHBKqD6qjZJTKI+kUFBywkFjAhmUB18jGB6qA6anaJDKJ+UcEBC4kFTEgmUJ18TKA6qI6aXSKDqF9UcMBCYgETkglUJx8TqA6qo2aXyCDqFxUcsJBYwIRkAtXJxwSqg+qo2SUyiPpFBQcsJBYwIZlAdfIxgeqgOmp2iQyiflHBAQuJBUxIJlCdfEygOqiOml0ig6hfVHDAQmIBE5IJVCcfE6gOqqNml8gg6hcVHLCQWMCEZALVycekcqguPDzc2tra0NDQxcUlISGBxPHo0aNPP/20SZMmOjo6/v7+5AJkRG3PyVVUIjhXVYDgRCWBcBGkCkkGTEgmOIPkY6K24DPUfZdnMDo6Wl9fPyIiIjU11d/f39TU9P79+yoHkJaW5ufn9/PPP7do0QKqU4FTnrOoX1TawEJiAROSCVQnH5NKoDpXV9fx48fzCOzt7YOCgvhZlYaHhwdUp8KkPGdRv6i0gYXEAiYkE6hOPiaarrqCggI9Pb3Y2FgegZ+fn7u7Oz+r0oDqVICU8yzqFxU4sJBYwIRkAtXJx0TTVffw4UOGYRITE3kEoaGhTZo04WdVGqWrLj8/P+efKT09nWGYrKwspdgpLy8vLi4uLy9Ok/d7AAAgAElEQVRP7Aa0cD0woQ4qsJBYwIRkolQqgYXEIgmTrKwshmFyckp8DrGCP6vjVHf27FleaXPmzLGzs+NnVRqlqy4kJIT596RQKOIwgQAIgAAIaDUBhUKh0aqT9gYmrurId0xKpfLVq1d//PHH5cuXjx8/vmPHjk2bNm3evFmhUERHR2/fvj0mJiY2NjYuLm7Pnj379u2Lj4/fv3//gQMHDh06dPjw4SNHjhw9evTYsWPHjx8/ffr0xYsX161bl5mZmZ+fT93X+xmU5G2plqEDE+qAAguJRRImmn5Vx7Ksq6vrhAkT+Ks3BwcHPJbC0yhjIz8//9atW4cPH167du0333zj4+PTs2dPV1fXjz76yNzc/N8XutLM6ejomJubN2zY0NHRsUOHDj179vzss8+++uqrb7/9NiwsbMOGDXv27Dl9+vS1a9cyMjLy8/PL2JFKuhg+lyIHDkxIJvisTj4mmv5ZHcuy3JcNIiMjU1NTp0yZYmpqeu/ePZZlg4KCfHx8eDQpf0+tWrX67LPPUlJSrl27xr9EbajtOXUtYVAzz9W8vLwLFy6sW7cuODj4008/bdeunYWFhVp96ejo1KxZ09bW1s3NrUuXLp07d/bw8OjYsWOHDh3atWvXtm3bNm3atGrVqkWLFs2bN3d2dnZycnJ0dGzatKmDg4O9vb2dnV2TJk2sra1r1aqlp6endnfkAiYmJpaWlo6Oju7u7v369Rs5cuR//vOf2bNnr1y5cuvWrUePHv31118zMjLevHkjHILK0tbMVKlYemBC5Q8sJBZJmKgt+BX8WR3X7fDwcCsrKwMDAxcXl1OnTnFBX19fDw8PnotK9bSysuJfojbU9py6ljAoyQAINyiiXVxcnJaWtnv37tmzZw8ZMoT7Er0KCm7WxMSkWbNmvXv3/uqrr+bPn79+/frdu3efOXPmxo0bT58+LSwsFLF3chWlUrlr166cnJyMjIwbN25cuHDhyJEjO3fuXL9+/ZIlS2bOnDlx4sRPP/3U09OzTZs2NjY2NWvW1NHRoR5wScEaNWrY2dl9/PHHAwYM+PLLL4ODgxcsWBAREbFz587jx49fvnz5/v37L1++LC4uJg+voiKakCoV1feS9gsmVDLAQmKRhInagq8RqiM7/+4RtT1XuwtJBkDtXsgFiouLU1JSZs2a9fHHH5uZmZFKqFOnTrdu3SZOnLhw4cIdO3YkJyc/ffq0fEq/CCZFRUXPnz+/c+fOxYsXjxw5sm3btp9++mnu3LnTpk374osvBg4c6OHh0bRp09q1a7+VFKtUqVKvXj1nZ+fu3buPGDEiICBgwYIFP//888GDB1NSUh49eqRUKkm2MkVEYJHpSDRns2BCHQtgIbFIwkRtwYfqSPL/H5FkAErcOvGCUqk8evTo5MmTrayshHrT19dv3ry5j4/PwoULDx06lJGRQaxafgFZmRQWFj558uTatWsnTpzYvn17eHj4999/7+fn5+Pj07t37/bt29vb29erV09fX1/Ip5R29erVbWxs2rVr17dv39GjR0+fPn3hwoUbNmyIj4+/dOnSo0ePpLpfKiuW8htdSfcEJlScwEJikYQJVFfi1yxI4ioRSQZAZZvkbE5OTnR09Keffip8fsTY2Lhv374RERG//vpreV6dkIenEikfJio7VZktLi7Ozc198ODBpUuXDhw4sGHDhvnz5//nP/8ZPnx4t27dnJyc6tatq6urW4oC+Zd0dXXr1avXvHlzLy+vkSNHBgUFLVu2jPvs8MqVKw8fPiwoKFDZO3VWE7BQD6wCg2BChQ8sJBZJmEB1Gqq64uLiM2fODB06VHiNUqdOndGjR+/evTsvL49MCE2ISJKU5dCRwsLCp0+fpqamJiQk7Ny5c82aNXPmzJkyZcrw4cM9PT1btGhhYWFRRh2am5tzl4Z9+vQZM2bMjBkzli9fvn379oSEhFu3bv3555/FxcWVBUs5kOd3ASY8CmEDWIQ0uLYkTKA6jVNdQUHBpk2bWrduzV9b2NnZBQYGJiYmSvXwCJlMUkUkSUqpDuYdt1NYWJiZmZmSknLgwIH169fPnTvXz89vyJAhHh4ezZo1K/uloYmJSePGje3t7QcMGPDX3ytfuHDh1q1bT58+nZaWVsaLwnfsiGaurk2pIiFhYCFhSsIEqtMg1T1+/HjWrFkffPABJzlDQ8PRo0dfvnyZHHuNjUiSlBrbO5UDKyoqysrKun79+unTp2NjY9esWTN79uxJkyYNHjz4448/trGxqVq1Kv9+paRGvXr1XFxc+vbtO3ny5MWLF+/cufPixYtZWVnl8xiRSo/Kc/a9SpWygwUWkpUkTKA6jVBdSkqKr6+vgYEBVxDr168/Z86cJ0+ekKOu4RFJklLD+/hWh/fy5cvff//95MmTgYGBYWFhgYGBn332mbu7e+PGjfnhplqwatWq3JdDJk6cOH/+fIVCwV0IatRHs2+FQmVhpIoKEG4WWEgskjCB6ipYdc+ePRs5ciRf7Nq2batQKCrvfS1JkpLM9coeoWIpLi5+8uRJSkrK3r17V61aNX369GHDhrm5ufGX9XxWCBs6OjoWFhaurq6DBg2aMmXK4sWLt2/ffu7cuUePHhUVFVUiUFQmlej4ZTpUYCHBSsIEqqsw1RUXF0dHR9etW5dhGB0dnWHDhiUlJZHDXLkikiRl5epyWY72bbG8fv365s2bhw4dWrt27YwZM0aMGOHh4aH2QlBfX79Ro0bu7u4jRoyYMWPG6tWr4+Pjr169Wspfcy/Lwcu0zNsykekwNG2zwEKOiCRMoLqKUd2DBw+8vb25d+sODg7CXykiR7oSRSRJykrU3zIeqlRYioqKMjMzk5OTY2Njly1bNm3atGHDhrVv375BgwalPy9qZmbm6OjYq1ev8ePHz507d/PmzQkJCenp6RV4ISgVkzIOQWVZDFjIkZKECVRX3qorKipauXIl98DCX18k+P7777Xpjx1LkpRkrlf2SDlgefPmzYMHD86cObN169b58+dPmjSpb9++LVu2rFWrlvD+p0rbyMjIwcHB29t7ypQpK1as2L9//82bN8vn/nk5MKmMaQMs5KhJwgSqK1fVXbt2rX379ly5adeundq/SU2OuoZHJElKDe+jiMOrWCy5ubnXr18/dOhQRETEt99+6+vr27lz58aNG5f0h7l1dXWtrKw6deo0atSo2bNnb968OTExMSMjQ9qHQiuWiYhBLJ9VgIXkLAkTqK6cVFdcXLxixQru++BVq1YNDw+vwHtHZDJJFZEkKaU6GM3ZjmZiefPmzZ07dw4fPrxq1aqAgID+/fs7OTmZmJioXPnxs8bGxg4ODr169fL39w8PDz9y5MiDBw9Ep7FmMqnwnAEWcggkYQLVlYfqXr9+PXr0aK5keHt7P3jwgBxO7YhIkpTagULYi0qEpbi4+NGjR2fOnNm0adMPP/wwcuRIDw+Phg0blvRZoLGxsbOz8+DBg2fMmLFhw4bExMTMzMyyXP9VIibCoZS7DSwkYUmYQHWyq+6PP/5o27YtwzC6urqLFi0qSxUgB7uyRCRJysrS2bIfpxZgKSgo+P333w8fPvzTTz99/fXXffr0sbOzq1KlCn/NJ2yYmJg4Ojr269dv6tSpK1eu3L9//40bN1Q+k9YCJmVPgLIvCSwkK0mYQHXyqi4xMZH7mlSNGjUOHTpEjqKWRSRJSi1josU/Lf3mzZvbt2/Hx8eHhYVNmDCha9euDRs2LOm3lnR0dBo2bNi5c+exY8f++OOP0dHRYWFhz58/177hfpce4Qwi6UnCBKqTUXURERHch3OOjo6///47OYTaF5EkKYGlUhMoKCi4devWgQMHwsPDuY8AnZ2dTU1NhZd9wna9evXat2//+eefh4aGxsTEXL169fXr15WawLscPM4gkp4kTKA6WVRXUFAwYcIE7nweNGjQy5cvyfHTyogkSal9ZICluLj48ePHZ8+e3bhx43fffTd8+HBXV1fqDwtzf1HB2tra09PTz88vPDz86NGj9+/fF/38S+VKJ6QKOV6SMIHqpFddUVFRz549uTN2zpw52v3hnEpeSpKUKtvUgllgIQeRY/LkyZOLFy9u27Zt9uzZPj4+rq6uwt9lFF78GRkZNWvWrH///l9//fWaNWuOHz9esV+BJ3skSQSpQmKUhAlUJ73q1qxZwzCMiYnJ3r17yWHT7ogkSal9iICFHNOSmBQXF2dmZiYkJERERHz99dd9+/a1s7MT/mqj0H/GxsZOTk5DhgyZOXPm5s2bk5OT//zzT3JflShSEpZK1AXJD1USJlCdxKp79OgR97Y0LCxM8iHX/A1KkpSa3823PUJgIYm9FRPuK4AHDx5csWKFn59fz549bWxsSvoKfP369Tt37jx+/PilS5fGx8ffunWrEv0cxFthIalqZUQSJlCdxKobNGgQwzBt2rTR/J9RleOskCQp5Tiwit0msJD8352JUqm8devWvn37Fi9ePHbsWHd3d+6Ppwsv+7i2np5e48aNPT09v/rqq7CwsH379t24caN8/v4Z2fHSI++OpfTtV8ZXJWEC1Umpul27djEMU6VKlcr1e6oSZr8kSSnh8WjIpoCFHAiZmLx48eLcuXMbNmwIDg4eOHCgk5OTsbExKT/ue65WVladO3f+4osv5s6du23btosXL1b4lx9kwkLyr0QRSZhAdZKpLjs7u379+gzDBAcHV6I0kvZQJUlKaQ9JE7YGLOQolBuT4uLihw8fnjp1at26dUFBQYMHD27evHkpX36oUaNG69athw4dGhwcHBkZefLkyfJ8/qXcsJAjorERSZhAdZKpjvt2gY2NzatXrzQ2aeQ+MEmSUu6DLP/tAwvJvGKZcA+/JCYmbty48fvvv/fx8Wnfvn0pP4rL/wSEv7//8uXL9+zZc/XqVTm+RFSxWMhh0oSIJEygOmlUd+bMGe4myfHjxzUhOSrqGCRJyoo6ePn2CywkW81kkpube/Xq1bi4uMWLF0+cOLFHjx4fffRRSX//jGGY2rVrt27desiQIdOmTQsPD9+/f/+1a9dyc3PJ/pYxoplYynjwMi0mCRNpVPfXz4KcOnVKpn7KtFm1PVe7X34AioqKmjVrxjDM6NGj1a6l3QvwTLS7m2/bO2AhiVUiJvxPQKxevTogIGDgwIEuLi41atSgfgTIBWvVquXi4jJgwIApU6aEhYXFxsb+8ssvz549U/st20qEhRxTmSKSMFFb8JmyHP3AgQMNDQ1tbGxCQ0P/+OOPsqxS4cuo7bnaI+QHICkpiWGYatWqPXv2TO1a2r0Az0S7u/m2vQMWkpgWMMnOzr58+XJcXNzSpUv9/f379evn7Oxc0lfgOQVWq1bN2dm5b9++/v7+YWFhcXFxV65cycn5370lLcBCjvU7RiRhorbgl0l1LMtmZWUtXbq0RYsWVapU8fLy2rFjh4Z/l0Vtz9UODz8AX3/9NcMwn332mdpVtH4BnonW9/StOggsJC4tZpKdnX3lypU9e/asWLHi66+/Hjx4cJs2bUr6IgSnwJo1a7Zs2bJfv36TJk0aOXLk1q1bz58/X8afQyLZallEklRRW/DLqjoe7qVLlyZNmmRkZFS7du0pU6bcunWLf0mjGmp7rvZouQEoKCiwtrZmGGbnzp1qV9H6BSRJSu2jBCzkmL6HTPLy8lJTU+Pj48PDwzkFtmrVqlatWqXcCDU0NLS1te3ateuYMWN++OGHjRs3JiQk3L9//7362q4kqaK24L+d6h49evTjjz82adLE1NT0888/7969e5UqVZYsWUImeoVH1PZc7RFyA3Du3Dnuz4Dl5eWpXUXrF5AkKbWPErCQYwomPJOcnJwrV67s3buX+y2Ijh07tmvXztLSsqSfQ+K+vGttbd2pUydfX9/vvvsuMjLy6NGjt2/fVvlRQH4XlbohSaqoLfhlUp1SqYyJiendu7e+vn6rVq1Wr17N/yW6rVu3Vq9eXQNBq+252mPmBmDatGkMwwwZMkTt8u/DApIkpfaBAhZyTMGEZKLy04ZKpfLu3bsnT578+eeff/jhh9GjR3fp0uWjjz4q6S+CcleHFhYWbm5uQ4cOnTZt2sqVK3ft2nXhwoWHDx9W3gtBSVJFbcEvk+pq1apVo0aNiRMnpqSkqIzf8+fPra2tVYKaMKu252oPUqlU7tq1y8bGhmGY6Ohotcu/DwtIkpTaBwpYyDEFE5KJiuqoC7AsW1hYmJ6efubMmc2bN8+ZM2fs2LE9evSwt7cv6e/CcArU09OztLR0dXUdMGDApEmT5s2bt2XLlrNnz2ZkZKh9LrSkIymfuCSporbgl0l1GzdurHS/pqi252pHUalULl26lGEYIyMj/ipW7VravYAkSal9iICFHFMwIZmUUXXUFVmWLS4ufvLkSXJyckxMzOLFi/39/QcMGODq6mppaVnSn8bmLGhsbOzg4NCrV6+vvvpq0aJFO3fuvHTpUoX/jTS+m5KkitqCXybV8cdUiRpqe662L0qlcujQoQzD9O/fX+3C78kCkiSl9rECFnJMwYRk8o6qo26QCxYWFj58+PDChQu7du0KDw+fMWPG559/7uHh0bBhQ11d3ZKeizE3N2/evHm/fv2mTJmydOnS3bt3q3w1opQ9SviSJKmituBDdSUOmVKpbNiwIcMwmzZtKnGh9+wFSZJS+5gBCzmmYEIykU911H1xwYKCgt9///3IkSNr164NDg7+5JNP2rZtW5avRgwYMGDq1KnLli3jFJidnV3KXt7lJUlSpXKoLjw83Nra2tDQ0MXFJSEhgUrt5MmTLi4uhoaGjRo1Wr16NXUZYVBtz4ULU9tKpbJevXoMw8TFxVEXeA+DkiSl9nEDFnJMwYRkUiGqox4Gy7J5eXnXrl0TfjWidevWpX81onr16i1atOjbt+/kyZMXLly4ffv2c+fOZWRkFBUVlbSXssQlSRW1Bb/ir+qio6P19fUjIiJSU1P9/f1NTU3v37+vAuju3bsmJib+/v6pqakRERH6+voxMTEqy6jMqu25yvLkrFKp9Pb2ZhjGx8eHfPX9jEiSlNqHDljIMQUTkolGqY56eCzL/vnnn1evXt27d++KFSsCAgIGDRrUqlWr2rVrl3QXlGEYAwMDGxubLl26jB49OjQ0lPuCfFZWVhkfh5EkVdQW/IpXnaur6/jx43nu9vb2QUFB/CzXCAwMtLe354Pjxo1zc3PjZ6kNtT2nriUMKpXKefPmMQxjZmamlV9nEXa2jG1JkrKM+6pEiwELOVhgQjKpFKqjHjbLsi9fvvztt9/27du3atWq6dOnf/rpp+3bt//www9L+SzQzMysZcuWgwYNCgwMXL16dXx8/JUrV8i/FCpJqqgt+BWsuoKCAj09vdjYWJ6vn5+fu7s7P8s1Onbs6OfnxwdjY2OrVKlS+l8mU9tzfmslNZRKZWxsLPcbdfv27StpsfcqLklSah8xYCHHFExIJpVaddTucD1KS0s7derUxo0bZ82a5evr+/HHH3Nls6QLQWNjY1tb286dO/v4+EyePHnUqFG9e/d+l9+LYFlWbcGvYNU9fPiQYZjExESeY2hoaJMmTfhZrmFraxsaGsoHExMTGYZ59OgRH+Ea+fn5Of9M6enpDMNkZWUpxU55eXlxcXHcz9T5+PiI3YxWrccxycvL06pevXNngIVECCYkE6VS+f5g4f5Ydmxs7OLFi7/66qtevXo5OTmVJD+GYZ49e0YlVsZgVlYWwzDCv6ytYgeNUN3Zs2f5w5ozZ46dnR0/yzVsbW3nzp3LB7lfj8vIyOAjXCMkJEQFpUKhiHu3KTQ0lGEYU1PTHTt2vNuWsDYIgAAIvC8ENm3aNH/+fH9//yFDhnTo0MHa2trAwEClPgtn37HAKhQKjVadtDcw5biq+/PPP7kfL545c+Yff/xRxrcY2rrY+/Oe9K1GEFhIXGBCMtHWq7rs7OyLFy9u3br1hx9+8PHxcXNzK+lJzipVqtjZ2fXt2/frr7+OiIhISEjIzMyUJFU0/aqOZVlXV9cJEybw12cODg7Ux1IcHBz4ZcaPH18+j6XExcUplcqAgADu3Yeurm7nzp1XrVqVmZnJH8x71cAHMNThBhYSC5iQTLTgs7o3b97cvn07Pj4+LCxswoQJXbt2bdCggfDiTNi2tLTs3LnzuHHjFi1atGfPnps3b1IfsJAkVTT9szqWZbkvG0RGRqampk6ZMsXU1PTevXssywYFBfFP+XNfNpg6dWpqampkZGS5fdmAU11BQcGCBQtat27Nj6Kurm6nTp3Cw8PJm6jU/NaaoCRJqTU0+I4AC4+Cb4AJj0LYqFxYnj9/npSUFBUVNX369P79+9vb25f0p6irV6/etm3bESNGzJ49e9u2bSkpKS9fvhR2vJS2JEwqgepYlg0PD7eysjIwMHBxcTl16hQHxdfX18PDgwd08uTJli1bGhgYWFtbl9tXyDnV8cfwl3EXLFjQpk0b3nk6Ojru7u4BAQHcxfiTJ0/K+FUSfpuVqyFJUlauLpflaIGFpAQmJBNNvqp7/fr1tWvX4uLiFi5cOHbsWHd395L+ooqRkZGTk9OgQYOCg4OjoqISExOfPn36LnVPklSpHKqj5sQ7BtX2XO32SxmAtLS0hQsXurq68s7jGzVr1mzfvv2oUaPmz5+/e/fu1NRUbfqhu1KYqOWpxQsACzm4YEIy0RDVvXr16vr163v37l2yZMmECRO6detmZWVV0o/nWVpadunSZeLEicuXLz906NC9e/fe8W+jkFgkSRW1Bb+Cn8Akuy1VRG3P1e6oLANw7969NWvWTJkyxcvLy9rauqR0qV27dqtWrQYOHMj9Tbm4uLiUlJTnz5+/y1shtccvxwJlYSLHfjV8m8BCDhCYkEzKWXXcl765P/0VGBg4dOjQtm3bcn/skH9rLmxUq1bNxcVl2LBhM2fO3Lx5c3Jycvn8ooskqaK24EN11IT8b1DEALx69erKlSvbtm2bNWvWp59+2rJlS3Nzc2EyqbSrVq3atGlTT0/PsWPHzp49e8OGDcePH799+7bG/mSSCCYl8tWiF4CFHEwwIZmIqyrU7QiDubm53F+zXLly5ddffz148ODWrVuX/qe8qlat2qJFiyFDhsyYMSMqKurMmTOZmZkV9c5bklSB6nKEOfFWbUkGgGXZFy9eXL58effu3cuXLw8ICBg8eHCbNm1Kug/Ou7BOnTrOzs6enp4jR44MDg5evnz5jh07zpw5c+fOnVevXr1VRyRcWComEh6SJmwKWMhRABOSyTuqjldaeHj4tGnThgwZ0qZNmzp16vBFg2zwP9Pj5+e3ZMmS2NjYX375hfzTXNRDLbegJKkC1VW86krKmFevXt28efPo0aPr16///vvvx4wZ0717dzs7OxMTEzJlVSJmZmZNmjRxd3cfMmTI5MmT58yZs27dun379iUnJ6enpxcUFJS003eMS5KU73gMGrg6sJCDAiYkk7Korri4+Pnz59yb4xUrVkybNm3o0KGurq6lvzk2MzPjfnnO398/LCwsLi7u8uXLL168oB6DpgUlSRWoTnNVV1LCFRcXP3369MqVKwcPHly/fn1oaOikSZMGDRrUvn37Ro0aGRkZqWiPOluzZk0HB4fOnTt/8skn/v7+8+bNW79+/f79+5OTk+/evfvnn3+Ku1khSVKW1PHKGwcWcuzAhGQiVF1BQcHdu3dPnjy5adOm0NDQcePG9ezZs2nTplWrVqWe0VxQRWmxsbEpKSmVRWlUIEImJS1QljhUV/lUV/q4FhcXv3jx4saNGydPnoyOjl62bFlwcPDo0aN79erVqlUrS0vLKlWqlHKq8C/p6+t/8MEHjo6OHh4egwYN+vLLL4ODgxctWhQVFbVnz57ExMQbN248ffq0sLBQeDyoX0IafBtYeBR8A0yKi4tzcnJu3ryZkJCwffv2sLCwqVOnDhw40NbW1sLCoqRH2LgztE6dOq1btx44cOCUKVOWLFmya9cuLVAanxsqDUlSBarTNtWpZAk5W1RUlJWV9dtvvx07dmzLli1LliwJDAz09fX19PRs3ry5paVlGa8LuVNOR0enRo0aNjY2rq6unp6eQ4cO7dmzZ1BQ0KJFiyIjI2NjY0+cOHH58uV79+69ePFC8qeQyd5pZkSSc1Uzuyb6qLSeCXen8caNGwkJCTExMatWrQoJCRk3blz//v3d3Nysra2NjY35d5bUhqGhIfczb76+vt9+++26desOHz588+bNCvwwXvRwv8uKkqQKVPfeqa4sOZeXl/fgwYNLly4dOXIkOjp65cqVs2bN8vPzGz58uJeXV5s2bRo1amRmZkY9P0sPmpmZNWjQwNHRsUOHDr179/7ss88mTJgwffr00NDQFStW/Pzzz7t27Tp27FhycvLNmzcfPXqUm5sr7lZqWbpZbstIcq6W29GWz44qO5PXr1/fv38/OTk5Pj4+Kipq/vz5AQEBPj4+np6eLVu2rF+/fkl/N0TlBKlataqNjU2HDh2GDBkSEBCwZMmSoKCgc+fOPX78WAsyX5JckiRVoDqoTnw2KpXKzMzMa9euJSQkxMXFRUVFLVy4cOjQoRMnTvzss8969uzp5uZmZ2dXt27d0v9mucrJrzKrq6trZmZmaWlpb2/fpk2bLl269O/f38fHZ+LEiUFBQfPmzQsPD9+0adPu3btPnDjxyy+/3L59+/Hjx3l5eZpTKSQ5V8WPk0auqbFMCgsLnz9/fvv27bNnz+7Zs2f9+vULFiyYNm3aqFGj+vTp065dOxsbm7K/zzMzM7O1te3QocOAAQPGjRsXEhKyatWq2NjYxMTEO3fukL/BprFYKjCJJGEC1UF1UuZwKUn5+vXrzMzMmzdvXrhw4fDhwzt27Fi3bt2iRYu+++67KVOmjBkzZsiQIZ6enu3atWvWrFmDBg2qV69eyu8Xq+iQOqujo2Nqalq3bt1GjRo1a9bM1dW1cyd56dIAAB9SSURBVOfO3t7ew4YNGz16tJ+fX3Bw8Jw5c5YuXRoREaFQKHbv3n3s2LGkpKSUlJTr16+npaVlZmZmZ2fn5+e/ozVLwSIl/Uq1LTmYFBcXv379+vnz5w8fPvz999+vXr2anJyckJBw6NCh3bt3R0dHR0VFrVq1asmSJaGhocHBwdx7st69e3fo0MHR0bFBgwbVqlWj5hI1qK+vb2lp2bJlS09PTx8fn4CAgB9//DEqKio+Pv7ixYsPHjwQ8f1XObBUqrygHKwkTKA6qI6SW6JDkiQlv/fi4uLc3NyMjIxbt25dvHjxxIkTe/bs2bJly+rVqxcsWDBz5kx/f/9Ro0YNGjSoW7durq6u9vb29evXL/0RNWrNKkvQyMioRo0aH374IXdx2blz5z59+nz66adjx46dOnXqt99+++OPPy5dunTNmjU///zztm3b9uzZc/jw4YSEhOTk5EuXLoWHh1+/fv3evXt//PFHZmZmVlZWdnZ2bm5ufn5+YWHhO6qUJ6ZpjeLi4qKiojdv3iiVytevX798+TI7OzsrK+vx48f37t2LiIi4efPm7du3r1+/funSpdOnTx88eHDnzp0bN25cvXr1okWLZs2aFRgYOGnSpLFjx/r4+AwdOrRfv35eXl6dOnVq166di4tLs2bNGjduXL9+/Ro1arzVZ8xqR7xq1arW1tZt2rTp2bOnj4/P1KlTQ0ND165dGxsbm5CQcOPGDZn+mJG0Z5Cm5YO445GECVQH1YlLP/pakiQlfdNvEy0sLPzzzz8zMjJ+//33K1euJCUlHT16dPfu3QqFIiIiYunSpaGhoTNmzPDz8xszZswnn3zSp0+fzp07u7q6Nm3atFGjRhYWFjVq1FD71IDacvlWC+jp6RkYGBgbG1erVq169eq1a9euV6+epaVlw4YNGzVqZGtra29v36xZs+bNm7u4uLRp06Zdu3Yff/xxx44dPTw8OnXq1Llz5y5dunTr1q179+49evTw9PT08vLq2bNnr169evfu7e3t3efvqW/fvv369evfv3/fvn179+7t5eXVvXv3rl27durUqWPHju3bt2/btm2bf0+tBVOrVq1atmzp6Ohob29vY2NjbW1taWlZr169WrVqmZmZmZiYGBkZGRoa6uvr6+nplf4M4VvBeduFdXV1TU1Na9eu3aBBgyZNmjg7O7dt27ZTp05eXl4DBgz47LPPxowZM3ny5G+//Xbx4sXr1q2LiYk5cuTIhQsXbt269fjx4/z8/LdJNymX1ZAzSMouvfO2JGEC1UF175yJgg1IkpSC7VVws7i4OD8/Pzs7OzMz8969e9evX+cuLvfu3bt169aIiIiwsLDZs2dPnz594sSJvr6+n3zySb9+/Tw9PT08PNq2bevs7NykSZOGDRvWqVPH1NS0WrVqxsbGZXxa4W2Le6VbXk9PT19f38TExMzMrEaNGhYWFjY2Ns2bN2/fvn337t379+8/fPjwL7/8curUqd98883s2bMXLFiwfPnyNWvWbNiwYevWrbt27dq/f/+xY8cSExMvXbrEXTFnZmbm5ORQf/OsgjOpzLvXsjOozP0ubUFJmEB1UF1pSfa2r0mSlG+7U81fnsRSVFRUUFCQl5eXk5PD3dB79OjRgwcP0tLSbt++fePGjWvXrl25cuWXX365cOFCUlLSmTNnTp48eezYscOHD+/fv3/v3r1xcXExMTE7duzYvn17dHT01q1bFQrFli1bNm3atHHjxp9//nnDhg1RUVHr16+PjIxc9/cUERGxdu3aNWvW/PTTT2vXro2MjNywYcPGjRu3bNkSHR29Y8eOnTt3xsXF7dmzZ+8/075/pvh/poMHDx49evTkyZNnzpw5f/78L7/8cuXKlWvXrt28efPOnTtpaWn3799PT09/+PBhRkbG48ePnz59+uzZsxcvXuTk5OTl5RUUFHA3bEkmmj+O5XCEwEJCloQJVAfVkaklPiJJUorfvaauCSzkyIAJyUSqvwxC3XLlDUqSKlAdVCflKSBJUkp5QJqxLWAhxwFMSCZQnXxMoDqojppdIoOoX1RwwEJiAROSCVQnHxOoDqqjZpfIIOoXFRywkFjAhGQC1cnHBKqD6qjZJTKI+kUFBywkFjAhmUB18jGB6qA6anaJDKJ+UcEBC4kFTEgmUJ18TKA6qI6aXSKDqF9UcMBCYgETkglUJx8TqA6qo2aXyCDqFxUcsJBYwIRkAtXJxwSqg+qo2SUyiPpFBQcsJBYwIZlAdfIxgeqgOmp2iQyiflHBAQuJBUxIJlCdfEygOqiOml0ig6hfVHDAQmIBE5IJVCcfE6gOqqNml8gg6hcVHLCQWMCEZALVyccEqoPqqNklMoj6RQUHLCQWMCGZQHXyMYHqoDpqdokMon5RwQELiQVMSCZQnXxMoDqojppdIoOoX1RwwEJiAROSCVQnHxOoDqqjZpfIIOoXFRywkFjAhGQC1cnHBKqD6qjZJTKI+kUFBywkFjAhmUB18jGB6qA6anaJDKJ+UcEBC4kFTEgmUJ18TKA6qI6aXSKDqF9UcMBCYgETkglUJx8TqA6qo2aXyCDqFxUcsJBYwIRkAtXJxwSqg+qo2SUyiPpFBQcsJBYwIZlAdfIxgeqgOmp2iQyiflHBAQuJBUxIJlCdfEw0XXXPnz8fMWKE2d/TiBEjXrx4QWWxc+fOHj161KpVi2GYlJQU6jIqQbU9V1menMW5CiYkAWoEqUJiAROSCVQnHxO1BZ+h7rvcgl5eXo6Ojmf/nhwdHb29vam73rhx46xZsyIiIqA6Kp9yC6J+UVEDC4kFTEgmUJ18TDRadampqQzDnDt3jut/UlISwzA3btyg4mBZNi0tDaorCU75xFG/qJyBhcQCJiQTqE4+JhqtusjISHNzc2Hnzc3N169fL4wI22pVl5+fn/PPlJ6ezjBMVlaWUuyUl5cXFxeXl5cndgNauB6YUAcVWEgsYEIyUSqVwEJikYRJVlYWwzA5OSU+nFGRNzBDQ0NtbW2FMrO1tZ07d64wImyrVV1ISAjz70mhUMRhAgEQAAEQ0GoCCoWiIlVHuoc3UXJycmhoaJMmTYQys7GxmTdvnjAibKtVHa7qyHdM0kYkef8l7SFpwtaAhRwFMCGZ4KpOPiYVfFX39OnT6yVMr1+/lvwGptCLam/dChemtvFhA4kFTEgm+AAGTKgEqEGcQSQWSZioLfgVeQOTeyzl/PnzXOfPnTuHx1LIPNCoiCRJqVE9kuRggIXECCYkE7wrko+JRquOZVkvLy9nZ+ekvycnJyfhlw3s7OxiY2M5NM+ePUtJSYmPj2cYJjo6OiUlJSMjg0qND6rtOb9kSQ2cqyQZMCGZoH6BCZUANYgziMQiCRO1Bb8ir+pYln327Nnw4cOr/T0NHz5c+BVyhmGioqI4LlFRUfyHfFwjJCSERCaMqO25cGFqW5IBoG658gbBhDp2wEJiAROSCd4VycdEbcGvYNVRey5JUG3P1e4F5yqJCExIJqhfYEIlQA3iDCKxSMJEbcGH6kjy/x+RZABK3HrlfAFMqOMGLCQWMCGZ4F2RfEyguhK/UUiFLgziXBXS4NpgQjJB/QITKgFqEGcQiUUSJlAdVEemlviIJEkpfveauiawkCMDJiQTvCuSjwlUB9VRs0tkEPWLCg5YSCxgQjKB6uRjAtVBddTsEhlE/aKCAxYSC5iQTKA6+ZhAdVAdNbtEBlG/qOCAhcQCJiQTqE4+JlAdVEfNLpFB1C8qOGAhsYAJyQSqk48JVAfVUbNLZBD1iwoOWEgsYEIygerkYwLVQXXU7BIZRP2iggMWEguYkEygOvmYQHVQHTW7RAZRv6jggIXEAiYkE6hOPiZQHVRHzS6RQdQvKjhgIbGACckEqpOPCVQH1VGzS2QQ9YsKDlhILGBCMoHq5GMC1UF11OwSGUT9ooIDFhILmJBMoDr5mEB1UB01u0QGUb+o4ICFxAImJBOoTj4mUB1UR80ukUHULyo4YCGxgAnJBKqTjwlUB9VRs0tkEPWLCg5YSCxgQjKB6uRjAtVBddTsEhlE/aKCAxYSC5iQTKA6+ZhAdVAdNbtEBlG/qOCAhcQCJiQTqE4+JlAdVEfNLpFB1C8qOGAhsYAJyQSqk48JVAfVUbNLZBD1iwoOWEgsYEIygerkYwLVQXXU7BIZRP2iggMWEguYkEygOvmYQHVQHTW7RAZRv6jggIXEAiYkE6hOPiZQHVRHzS6RQdQvKjhgIbGACckEqpOPCVQH1VGzS2QQ9YsKDlhILGBCMoHq5GMC1UF11OwSGUT9ooIDFhILmJBMoDr5mEB1UB01u0QGUb+o4ICFxAImJBOoTj4mUB1UR80ukUHULyo4YCGxgAnJBKqTjwlUB9VRs0tkEPWLCg5YSCxgQjKB6uRjAtVBddTsEhlE/aKCAxYSC5iQTKA6+ZhAdVAdNbtEBlG/qOCAhcQCJiQTqE4+JlAdVEfNLpFB1C8qOGAhsYAJyQSqk48JVAfVUbNLZBD1iwoOWEgsYEIygerkYwLVQXXU7BIZRP2iggMWEguYkEygOvmYQHVQHTW7RAZRv6jggIXEAiYkE6hOPiZQHVRHzS6RQdQvKjhgIbGACckEqpOPiaar7vnz5yNGjDD7exoxYsSLFy9IFkqlMjAw0NHR0cTExMLCwsfH5+HDh+RiKhG1PVdZnpzFuQomJAFqBKlCYgETkglUJx8TtQWfoe673IJeXl6Ojo5n/54cHR29vb3JXWdnZ3fr1m3btm03btxISkpq27Ztq1atyMVUImp7rrI8OYtzFUxIAtQIUoXEAiYkE6hOPiZqC35Fqi41NZVhmHPnznH9T0pKYhjmxo0bVBx88MKFCwzD3L9/n49QG2p7Tl1LGMS5KqTBtcGEZIL6BSZUAtQgziASiyRM1Bb8ilRdZGSkubm5sOfm5ubr168XRsj2kSNHdHR0cnIoH8Ll5+fn/DOlp6czDJOVlaUUO+Xl5cXFxeXl5YndgBauBybUQQUWEguYkEyUSiWwkFgkYZKVlcUwDNULnEQqUnWhoaG2trZCmdna2s6dO1cYUWm/fv26VatWw4cPV4lzsyEhIcy/J4VCEYcJBEAABEBAqwkoFIqKVB3pHt5EycnJoaGhTZo0EUrLxsZm3rx5woiwrVQq+/Xr17Jly5LUjas68h2TtBFJ3n9Je0iasDVgIUcBTEgmuKqTj0kFX9U9ffr0egnT69ev3+oGplKp7N+/v7Ozc1ZWltB/JbXV3rotaUU+LskdZH5r2tEAE+o4AguJBUxIJvhYVz4magt+Rd7A5B5LOX/+PNf/c+fOlfRYCue5Zs2aPXnyhAqLDKrtObmKSgTnqgoQnKgkEC6CVCHJgAnJBGeQfEzUFvyKVB3Lsl5eXs7Ozkl/T05OTsIvG9jZ2cXGxrIs++bNm759+3744YeXL1/O+GcqKCigUuODanvOL1lSA+cqSQZMSCaoX2BCJUAN4gwisUjCRG3Br2DVPXv2bPjw4dX+noYPHy78CjnDMFFRUSzLpqWl8Z/w8Y0TJ06QyIQRtT0XLkxtSzIA1C1X3iCYUMcOWEgsYEIywbsi+ZioLfgVrDpqzyUJqu252r3gXCURgQnJBPULTKgEqEGcQSQWSZioLfhQHUn+/yOSDECJW6+cL4AJddyAhcQCJiQTvCuSjwlUR/mmORU3GcS5CiYkAWoEqUJiAROSCVQnHxOoDqqjZpfIIOoXFRywkFjAhGQC1cnHBKqD6qjZJTKI+kUFBywkFjAhmUB18jGB6qA6anaJDKJ+UcEBC4kFTEgmUJ18TKA6qI6aXSKDqF9UcMBCYgETkglUJx8TqA6qo2aXyCDqFxUcsJBYwIRkAtXJxwSqg+qo2SUyiPpFBQcsJBYwIZlAdfIxgeqgOmp2iQyiflHBAQuJBUxIJlCdfEygOqiOml0ig6hfVHDAQmIBE5IJVCcfE6gOqqNml8gg6hcVHLCQWMCEZALVyccEqoPqqNklMoj6RQUHLCQWMCGZQHXyMYHqoDpqdokMon5RwQELiQVMSCZQnXxMoDqojppdIoOoX1RwwEJiAROSCVQnHxOoDqqjZpfIIOoXFRywkFjAhGQC1cnHBKqD6qjZJTKI+kUFBywkFjAhmUB18jGB6qA6anaJDKJ+UcEBC4kFTEgmUJ18TKA6qI6aXSKDqF9UcMBCYgETkglUJx8TqA6qo2aXyCDqFxUcsJBYwIRkAtXJxwSqg+qo2SUyiPpFBQcsJBYwIZlAdfIxgeqgOmp2iQyiflHBAQuJBUxIJlCdfEygOqiOml0ig6hfVHDAQmIBE5IJVCcfE6gOqqNml8gg6hcVHLCQWMCEZALVyccEqoPqqNklMoj6RQUHLCQWMCGZQHXyMYHqoDpqdokMon5RwQELiQVMSCZQnXxMoDqojppdIoOoX1RwwEJiAROSCVQnHxOoDqqjZpfIIOoXFRywkFjAhGQC1cnHBKqD6qjZJTKI+kUFBywkFjAhmUB18jGB6qA6anaJDKJ+UcEBC4kFTEgmUJ18TKA6qI6aXSKDqF9UcMBCYgETkglUJx8TqA6qo2aXyCDqFxUcsJBYwIRkAtXJxwSqg+qo2SUyiPpFBQcsJBYwIZlAdfIxgeqgOmp2iQyiflHBAQuJBUxIJlCdfEygOqiOml0ig6hfVHDAQmIBE5IJVCcfE6gOqqNml8gg6hcVHLCQWMCEZALVycdE01X3/PnzESNGmP09jRgx4sWLF1QWISEhdnZ2JiYm1atX79q167lz56iLCYNqey5cmNrGuUpiAROSCeoXmFAJUIM4g0gskjBRW/AZcsflGfHy8nJ0dDz79+To6Ojt7U3d+5YtW44cOXLnzp3ffvttzJgxZmZmT548oS7JB9X2nF+ypIYkA1DSxitpHEyoAwcsJBYwIZngXZF8TNQW/IpUXWpqKsMw/CVaUlISwzA3btyg4uCDXJeOHj3KR6gNtT2nriUM4lwV0uDaYEIyQf0CEyoBahBnEIlFEiZqC35Fqi4yMtLc3FzYc3Nz8/Xr1wsjKu2CgoKFCxeam5s/ffpU5SWVWbU9V1menJVkAMjNVuoImFCHD1hILGBCMsG7IvmYqC34Fam60NBQW1tbYedtbW3nzp0rjPDtvXv3mpqa6ujo1K9f/8KFC3xc2MjPz8/5Z0pPT2cYJisrSyl2ysvLi4uLy8vLE7sBLVwPTKiDCiwkFjAhmSiVSmAhsUjCJCsri2GYnJwSn0OUV3UhISFMCVNycnJoaGiTJk2ErrKxsZk3b54wwrdzc3Nv376dlJQ0evRoa2vrx48f8y/xDXJ3CoUiDhMIgAAIgIBWE1AoFBWpuqdPn14vYXr9+rWIG5ic1WxsbKgXf8KrugcPHjAMk5aWliV2ysjIUCgUGRkZYjegheuBCXVQgYXEAiYkk6ysLGAhsUjCJC0tjWGY7Oxs/spHpSHvVZ3KzlRmucdSzp8/z8XPnTtXlsdSWJb96KOPQkJCVLamMsvdwCzhkhJhEAABEAABbSOQnp6uIgJ+tiJVx7Ksl5eXs7Nz0t+Tk5OT8MsGdnZ2sbGxLMvm5uYGBwcnJSXdu3fvl19+GTNmjKGh4W+//cb3gdooKipKT0/Pzs7+58O7t/6fk2V6evpbr6m9K4AJdWyBhcQCJiSTnJwcYCGxSMIkOzs7PT29qKiIqgOWZStYdc+ePRs+fHi1v6fhw4cLv0LOMExUVBTLsq9fvx4wYED9+vUNDAwsLCz69u1b0mMpJXVSXFztIz3iNlup1wIT6vABC4kFTEgmLMsCC4mlfJhUsOrIbmtOpHwGQHP6W5YjARMqJWAhsYAJyQSqq0AmUB0V/n+DOFdJNGBCMkGqgAmVADWIM4jEUj5MoDqS/P9H8vPzQ0JC/vq3xCXevxfAhDrmwEJiAROSCcuywEJiKR8mUB1JHhEQAAEQAAGtIgDVadVwojMgAAIgAAIkAaiOZIIICIAACICAVhGA6rRqONEZEAABEAABkgBUx4aHh1tbWxsaGrq4uCQkJJCMWJY9efKki4uLoaFho0aNVq9eTV1Gy4JqsezcubNbt261a9euVq2am5vbwYMHtYwA2R21TPhVzpw5o6en17x5cz6ixY2yYMnPz58xY0bDhg0NDAwaN24cGRmpxUBYtkxVZfPmzc7OzsbGxh988MHIkSOzsrK0m8mpU6e8vb0tLCwYhtm1a1dJnZWp2L7vqouOjtbX14+IiEhNTfX39zc1Nb1//77KGNy9e9fExMTf3z81NTUiIkJfXz8mJkZlGS2bLQsWf3//+fPnX7hw4datW8HBwfr6+pcuXdIyDsLulIUJt3x2dnbjxo179OjxPqiujFj69u3btm3bI0eOpKWlnT9/PjExUchWy9plYXL69GldXd1ly5bdvXv39OnTzZo169+/v5ZxUOnO/v37v/nmm507d5aiOvmK7fuuOldX1/Hjx/NDYm9vHxQUxM9yjcDAQHt7ez44btw4Nzc3flYrG2XBotLxpk2bzpo1SyWoTbNlZzJs2LCZM2eGhIS8D6orC5YDBw6Ym5s/e/ZMm/KhlL6UhcnChQsbN27Mb2T58uUffvghP6vdjVJUJ1+xfa9VV1BQoKenx/2lTS63/Pz83N3dVfKsY8eOfn5+fDA2NrZKlSpKpZKPaFmjjFiEvS4qKmrQoMGKFSuEQW1ql53J+vXrW7du/ebNm/dBdWXEMmHChK5du06fPr1+/fq2trYBAQGvXr3SpvQQ9qWMTBITEw0MDOLj44uLizMzM93d3ceNGyfcjha3S1GdfMX2vVbdw4cPGYYR3kshf0KPZVlbW9vQ0FA+8xITExmGefToER/RskYZsQh7vWDBgpo1a1J/RFC4WOVtl5HJrVu36tate/Pmzb96+j6oroxYPD09DQ0Ne/fuff78+fj4eCsrq1GjRlXeZCj9yMvIhGXZHTt2VK1atUqVKgzD9O3bV4vfPasQK0V18hVbqI45e/YsPxJz5syxs7PjZ7mGym+jnzlzhmGYjIwMlcW0ZpY7V9Vi4furUChMTEyOHDnCR7SvURYmhYWFrVu35p9aen9UpzZVunfvbmRkxP+W2M6dO3V0dLT1wq4sqcKy7LVr1ywsLBYsWHDlypWDBw86OTmNHj1a+04cao9KV53wt0glLLbvterKeKtBvmtqah5UeLCMWLjjjI6ONjY23rdvX4UftqwHUBYmL168YBhG759JR0eHmz127Jisx1aBGy8LFpZlP//8879+Y5I/Tu6HKm/dusVHtKlRRiYjRowYPHgw3/HTp09r970ivqf//T2dkp/AlK/YvteqY1nW1dV1woQJ/DA4ODhQH0txcHDglxk/fvz78FiKWiwsyyoUCiMjo1KeG+ahaUFDbaoUFRVdFUwTJkyws7O7evVqbm6uFnS/pC6oxcKy7Jo1a4yNjV++fMltJC4uTldXV1uv6spYVQYOHDh06FCe6tmzZxmGefjwIR/R4kYpqgsMDJSp2L7vquMeC46MjExNTZ0yZYqpqem9e/f++qusQUFBPj4+XLZxz79OnTo1NTU1MjLy/fmyQelYFApFlSpVwsPDM/6Z+DtUWnmWliVVhB1/H25g/l/7duySTBzHcVzw7tDJSUQ46AhtCEGSaPQWt1a3G25xchGkfyHaGgJv9X8IGpouqSFoEMFoahAaok0Oigaxh+dAfr+C57GQ1K9vp9+vuvM+r+91HyKcTqfzsERRZNt2vV6/v7/v9XrFYrHRaKhWwtbzmHS7XcMwgiB4fHy8ubnZ398/ODgQ5vApThRF/b+vRCJxenra7/fjT3b9zsN206su/rDn1taWZVmVSqXX68Xj8X3fdd3ZqK6urvb29izLchxn9s+Y2XdFLjqdzr9ZXNdN6C/f90VSzEL912T2k38WG1J1c/4GPTw81Gq1dDpt23a73Rb8J118D8xzq5ydne3u7qbT6Xw+73ne09OTev/IW4dhqD8wEvET43cetlSdvDuKRAgggAACmgBVp3GwQQABBBCQJ0DVyZspiRBAAAEENAGqTuNggwACCCAgT4CqkzdTEiGAAAIIaAJUncbBBgEEEEBAngBVJ2+mJEIAAQQQ0ASoOo2DDQIIIICAPAGqTt5MSYQAAgggoAlQdRoHGwQQQAABeQJUnbyZkggBBBBAQBOg6jQONggggAAC8gSoOnkzJdEmCry8vORyuePj4zj87e2taZqXl5ebaEFmBL4IUHVfSPgCAuspcHFxYZrm3d1dFEWFQqHVaq1nDq4agcULUHWLN+WMCCxLoNls7uzseJ5XKpXe3t6WdRm8LwKrJkDVrdpEuB4Efi7w+vq6vb1tmuZgMPj5WTgSAXECVJ24kRJogwWGw2EqlUomk+fn5xvMQHQEPgtQdZ9F2COwpgLv7+/lctn3/ZOTk2w2+/z8vKZBuGwEFi5A1S2clBMisByBo6Mjx3HG4/FkMqlWq4eHh8u5Dt4VgdUToOpWbyZcEQLfFwjD0DCM6+vr+NDRaJTJZIIg+P6ZOAIBgQJUncChEgkBBBBAQBWg6lQN1ggggAACAgWoOoFDJRICCCCAgCpA1akarBFAAAEEBApQdQKHSiQEEEAAAVWAqlM1WCOAAAIICBSg6gQOlUgIIIAAAqoAVadqsEYAAQQQEChA1QkcKpEQQAABBFQBqk7VYI0AAgggIFCAqhM4VCIhgAACCKgCVJ2qwRoBBBBAQKAAVSdwqERCAAEEEFAFPgD51n+XVJxHKAAAAABJRU5ErkJggg==;" vertex="1" parent="1">
          <mxGeometry x="510" y="310" width="242.05" height="160" as="geometry" />
        </mxCell>
        <mxCell id="X61n1Rkwuy26WRs1GRfb-5" value="&lt;div style=&quot;&quot;&gt;&lt;b&gt;reynolds_number = 1_000_000.0,&lt;/b&gt;&lt;/div&gt;&lt;div style=&quot;&quot;&gt;&lt;b&gt;angle_of_attack&amp;nbsp; &amp;nbsp;= 10.0,&lt;/b&gt;&lt;/div&gt;&lt;div style=&quot;&quot;&gt;&lt;b&gt;cl&amp;nbsp; &amp;nbsp; &amp;nbsp; &amp;nbsp; &amp;nbsp; &amp;nbsp; &amp;nbsp; &amp;nbsp; &amp;nbsp; &amp;nbsp; &amp;nbsp; &amp;nbsp; &amp;nbsp; = 0.6999,&lt;/b&gt;&lt;/div&gt;&lt;div style=&quot;&quot;&gt;&lt;b&gt;cd&amp;nbsp; &amp;nbsp; &amp;nbsp; &amp;nbsp; &amp;nbsp; &amp;nbsp; &amp;nbsp; &amp;nbsp; &amp;nbsp; &amp;nbsp; &amp;nbsp; &amp;nbsp; &amp;nbsp;= 0.01932,&lt;/b&gt;&lt;/div&gt;&lt;div style=&quot;&quot;&gt;&lt;b&gt;cm&amp;nbsp; &amp;nbsp; &amp;nbsp; &amp;nbsp; &amp;nbsp; &amp;nbsp; &amp;nbsp; &amp;nbsp; &amp;nbsp; &amp;nbsp; &amp;nbsp; &amp;nbsp; = -0.1328,&lt;/b&gt;&lt;/div&gt;&lt;div style=&quot;&quot;&gt;&lt;b&gt;cl_cd_ratio&amp;nbsp; &amp;nbsp; &amp;nbsp; &amp;nbsp; &amp;nbsp; &amp;nbsp;= -2.73121143&lt;/b&gt;&lt;/div&gt;" style="text;html=1;strokeColor=none;fillColor=none;align=left;verticalAlign=middle;whiteSpace=wrap;rounded=0;" vertex="1" parent="1">
          <mxGeometry x="120" y="150" width="200" height="100" as="geometry" />
        </mxCell>
        <mxCell id="X61n1Rkwuy26WRs1GRfb-6" value="" style="endArrow=classic;html=1;rounded=0;" edge="1" parent="1">
          <mxGeometry width="50" height="50" relative="1" as="geometry">
            <mxPoint x="220" y="250" as="sourcePoint" />
            <mxPoint x="220" y="310" as="targetPoint" />
          </mxGeometry>
        </mxCell>
        <mxCell id="X61n1Rkwuy26WRs1GRfb-7" value="After nalyzing with NeuralFoil best shape" style="text;html=1;strokeColor=none;fillColor=none;align=center;verticalAlign=middle;whiteSpace=wrap;rounded=0;" vertex="1" parent="1">
          <mxGeometry x="380" y="320" width="110" height="60" as="geometry" />
        </mxCell>
      </root>
    </mxGraphModel>
  </diagram>
</mxfile>
